<?xml version="1.0" encoding="UTF-8"?>
<svg id="Layer_2" data-name="Layer 2" xmlns="http://www.w3.org/2000/svg" xmlns:xlink="http://www.w3.org/1999/xlink" viewBox="0 0 694.14 244.52">
  <defs>
    <style>
      .cls-1 {
        fill: url(#linear-gradient);
      }

      .cls-2 {
        fill: #0583f2;
      }
    </style>
    <linearGradient id="linear-gradient" x1="197.63" y1="115.15" x2="622.36" y2="115.15" gradientTransform="translate(694.14) rotate(-180) scale(1 -1)" gradientUnits="userSpaceOnUse">
      <stop offset="0" stop-color="#023e73"/>
      <stop offset=".75" stop-color="#0468bf"/>
    </linearGradient>
  </defs>
  <g id="_9" data-name="9">
    <path class="cls-1" d="M120.17,33.9c-1.76-.39-4.57-.91-6.43-.93.54.28,1.09.55,1.63.83.32.17.61.42.95.52.67.2,1.37.31,2.05.46.95.2,1.91.38,2.86.6,1.56.36,3.11.74,4.67,1.12.44-.84-.2-1.11-.76-1.28-1.98-.61-2.95-.87-4.97-1.31ZM351.14,37.23c-.33-.12-.66-.24-.75-.27.02-.05.03-.1.04-.15-11.75-5.43-32.78-13.65-49.58-17.89-12.75-3.21-27.81-7.06-30.72-7.73-5.86-1.35-17.07-3.61-22.95-4.89-3.3-.72-9.88-1.87-13.2-2.49-2.95-.55-5.94-.96-8.91-1.4-2.76-.41-5.52-.81-8.29-1.15-1.68-.2-4.99-.53-6.68-.68-5.86-.54-8.8-.43-14.68-.57-1.51-.04-4.29,0-5.78.31-1.85.38-3.32,1.47-4.76,2.6-.87.68-1.71,1.41-2.62,2.17,1.23.45,1.27.48,2.22-.42,1.65-1.57,3.73-1.95,5.7-2.25,4.21-.65,16.58-.02,21.63.46,3,.28,13.94,1.86,16.67,2.28,3.75.57,7.49,1.23,11.22,1.91,13.68,2.52,32.71,7.07,37.5,8.32,5.15,1.34,12.19,3.38,17.33,4.76,1.58.42,3.15,1.03,4.77,1.19,4.02.39,7.9,1.41,11.78,2.43,3.23.85,6.4,1.92,9.57,2.96,4.94,1.61,9.9,3.18,14.81,4.91,4.3,1.52,8.52,3.25,12.78,4.89.92.35,1.84.7,2.77,1.04.04-.11.08-.22.12-.33ZM106.69,154.49c-.71.18-1.27.33-1.86.48.14.67.25,1.42.47,2.13.13.4.44.75.66,1.12.06-.09.13-.18.24-.34.04.3.06.51.09.71.07,0,.13,0,.2,0,.07-1.34.13-2.68.2-4.09ZM114.72,34.39c-.84-.48-1.81-1.07-2.82-1.6-.35-.18-.79-.34-1.16-.31-1.82.16-3.54-.27-5.27-.71-.27-.07-.56-.07-.88-.11,1.06,2.12,9.96,2.72,10.14,2.75ZM71.78,161.15c-.02.35.13.71.21,1.07.1.04.2.07.3.11.41-.64.92-1.24,1.21-1.93.42-1,.64-2.08,1.01-3.11.48-1.34,1.09-2.63,1.52-3.98.7-2.22,1.33-4.46,1.95-6.7.47-1.73.89-3.48,1.33-5.21.33-1.28.42-2.7,1.06-3.8.74-1.28.95-2.7,1.54-4,.35-.76.49-1.62.67-2.45.07-.31-.02-.65-.04-1.04-.26.58-.49,1.03-.67,1.5-.35.95-.66,1.9-.99,2.85-.04.12-.08.25-.16.33-1.9,1.66-2.36,4.08-3.27,6.25-.74,1.76-1.32,3.59-1.99,5.38-.09.24-.27.45-.59.58.81-2.27,1.62-4.55,2.43-6.82.68-1.91,1.34-3.83,2.06-5.72.53-1.38,1.04-2.79,2.34-3.72.26-.19.3-.68.46-1.08.23.13.42.24.66.37,1.8-7.74,3.58-15.45,5.37-23.15-.1-.02-.19-.05-.29-.07-.32,1.21-.63,2.43-.95,3.64-.15-.03-.3-.07-.45-.1,1.32-6.93,2.63-13.86,3.95-20.8.15.02.3.05.45.07-.43,2.95-.87,5.89-1.3,8.84l.17.03c.29-1.4.58-2.8.88-4.2.05,0,.11,0,.16,0-.11,1.58-.21,3.16-.32,4.74-.01.22-.1.44-.1.66-.13,4.35-.27,8.7-.39,13.05-.04,1.46.01,2.93-.01,4.39-.01.54-.18,1.07-.18,1.61.04,2.38.09,4.75.2,7.13.06,1.24.4,2.47.32,3.69-.07,1.04-.58,2.05-.85,3.09-.8,3.08-1.59,6.16-2.37,9.25-.07.3,0,.64.08.97.74-2.71,1.45-5.43,2.24-8.13.58-1.96,1.24-3.89,1.92-5.81.63-1.8,1.31-3.59,2.01-5.37.31-.79.75-1.54,1.11-2.32.47-1.03.9-2.08,1.35-3.12.26-.59.56-1.16.82-1.74.19-.43.33-.89.54-1.31.25-.51,1.61-3.39,2.06-4.34.34-.71.72-1.42,1.1-2.11.6-1.09,3.25-5.29,3.27-5.28.64-1.17,1.18-2.43,1.95-3.53,1.07-1.54,2.33-2.95,3.48-4.43.96-1.24,1.85-2.54,2.84-3.75,1.19-1.46,2.44-2.88,3.71-4.27,1.27-1.4,2.55-2.8,3.94-4.08,1.07-.99,2.31-1.79,3.46-2.69.34-.27.6-.63.95-.88,1.46-1.07,2.89-2.19,4.45-3.11.4-.23,3.28-2.05,4.26-2.63,1.33-.8,2.81-1.35,4.23-2,.88-.41,1.74-.86,2.64-1.2,1.5-.55,4.75-1.7,6.25-2.24,3.41-1.24,9.36-1.4,11.07-1.41.3,0,.61-.07.97-.11,0,1.97.1,4.04-.05,6.09-.05.71.17,1.38.07,2.07-.11.79-.15,1.59-.2,2.38-.2,3.31-.37,6.63-.59,9.94-.16,2.35-.36,4.7-.58,7.05-.24,2.63-.51,5.26-.76,7.89-.14,1.52-.25,3.05-.4,4.57-.24,2.34-.51,4.68-.75,7.01-.15,1.49-.25,2.99-.41,4.47-.23,2.05-.51,4.09-.75,6.14-.16,1.39-.25,2.79-.41,4.18-.3,2.55-.65,5.1-.94,7.65-.17,1.46-.25,2.92-.41,4.38-.23,2.02-.51,4.03-.75,6.05-.22,1.83-.38,3.67-.61,5.5-.21,1.76-.48,3.52-.71,5.28-.28,2.14-.55,4.28-.83,6.42-.24,1.82-.51,3.64-.75,5.46-.22,1.7-.39,3.41-.61,5.11-.25,2.02-.52,4.03-.8,6.04-.24,1.69-.51,3.38-.74,5.07-.39,2.79-.77,5.59-1.15,8.39-.27,1.98-.54,3.96-.79,5.94-.06.48,1.04,2.73,2.82,4.52,2.07,2.07,3.05,3.12,6.57,3.74-4.38-1.79-3.88-2.41-5.75-4.68-1.75-2.43-2.32-4.34-2.21-5.14.25-1.98.6-3.94.89-5.92.39-2.63.79-5.26,1.14-7.9.29-2.14.51-4.29.8-6.43.43-3.17.91-6.33,1.33-9.51.3-2.2.51-4.42.8-6.62.29-2.17.65-4.32.94-6.49.23-1.73.39-3.47.61-5.21.3-2.33.64-4.65.93-6.98.23-1.83.39-3.67.62-5.5.21-1.76.49-3.52.7-5.28.18-1.49.29-2.98.45-4.47.25-2.22.51-4.45.75-6.67.21-1.9.38-3.8.61-5.69.23-1.98.52-3.96.75-5.95.17-1.46.27-2.92.41-4.38.25-2.76.52-5.52.76-8.28.15-1.72.3-3.43.4-5.15.21-3.61.41-7.22.58-10.83.15-3.24.28-6.47.38-9.71.04-1.25,0-2.5,0-3.95.72.1,1.22.1,1.67.24,4.3,1.35,8.6,2.7,12.89,4.1,3.84,1.25,7.65,2.58,11.48,3.85,2.66.88,5.32,1.76,8,2.57,2.3.69,4.7.85,7,.27,1.69-.43,2.92-.08,4.15.98,2.41,2.07,4.87,4.1,7.3,6.15,3.27,2.75,6.46,5.6,9.83,8.22,2.99,2.33,6.17,4.43,9.29,6.58,2.47,1.7,4.95,3.4,7.49,4.99,1.55.97,3.22,1.74,4.85,2.57,1.29.66,2.58,1.34,3.92,1.91,3.78,1.59,7.54,3.23,11.38,4.66,4.37,1.62,8.8,3.08,13.23,4.53,4.1,1.34,8.22,2.59,12.34,3.86,3.85,1.19,7.69,2.43,11.57,3.55,7.5,2.18,26.87,7.33,29.01,7.87,3.44.88,6.87,1.86,10.3,2.78,3.29.88,6.59,1.73,9.87,2.61,3.32.89,17,4.81,20.54,5.82,1.12.32,4.84,1.31,5.55,1.57.03-.1.07-.2.1-.3-1.08-.37-4.55-1.62-5.21-1.88-.75-.29-73.1-25.08-74.46-25.59-1.79-.67-13.39-5.72-14.94-6.52-1.2-.63-1.01-.49-2.2-1.15-.74-.41-2.89-1.56-3.63-1.96-1.19-.65-12.19-6.71-16.81-9.65.06-.1.11-.2.17-.31.25.14.5.3.76.42,3.59,1.7,7.2,3.38,10.79,5.09,1.14.54,2.22,1.21,3.35,1.76,1.44.7,2.91,1.36,4.38,2.01,1.82.82,3.65,1.64,5.48,2.44,2.62,1.15,5.24,2.3,7.88,3.43,2.75,1.18,5.48,2.37,8.26,3.48,2.28.91,4.59,1.73,6.91,2.54,3.32,1.16,6.64,2.3,9.99,3.39,2.15.7,4.34,1.29,6.52,1.91,2.48.71,4.99,1.35,7.46,2.09,3.62,1.09,7.21,2.25,10.81,3.37,2.12.66,4.27,1.24,6.38,1.94,3.16,1.04,6.28,2.19,9.44,3.24,2.43.81,4.89,1.52,7.37,2.16-7.58-3.11-15.45-5.37-23.2-8.03l-9.17-3.09c-5.16-1.53-10.34-3.05-15.48-4.66-4.63-1.45-9.27-2.88-13.83-4.54-4.47-1.63-8.83-3.54-13.24-5.33-2.22-.9-4.45-1.78-6.64-2.75-1.24-.55-2.37-1.33-3.6-1.89-2.9-1.33-5.86-2.53-8.74-3.9-2.87-1.37-5.73-2.79-8.49-4.37-1.51-.86-2.83-2.07-4.19-3.18-1.67-1.36-3-2.7-4.59-4.14-.67-.61-1.47-1.49-2.09-2.17-.51-.56-1.12-1.03-1.69-1.53-.1.11-.2.22-.3.33,2.87,2.77,5.73,5.53,8.72,8.42-.75-.49-1.38-.88-1.99-1.29-.86-.59-1.93-1.38-2.72-2.05-1.17-.99-2.09-1.84-3.22-2.89-.8-.74-1.58-1.5-2.4-2.21-.18-.15-.75-.16-.77-.1-.33.86-.74.03-.79-.05-.47-.62-.84-1.32-1.31-1.95-.18-.24-.2-.91-.84-.53-.03.02-.29-.37-.45-.56-.44-.52-.9-1.03-1.31-1.57-.17-.23-.24-.54-.35-.82.27.04.56.04.81.12.62.22,1.21.55,1.85.7,1.92.46,2.99,1.78,3.71,3.5.05.12.21.2.5.2-.09-.21-.17-.41-.27-.66.09.01.2,0,.26.04,1.81,1.47,3.58,2.99,5.43,4.41,1.08.83,2.85,2.29,3.97,3.07,1.19.83,4.37,3.01,7.23,4.9,1.33.88,2.94,1.5,4.43,2.22,1.96.94,3.89,1.94,5.88,2.82,3.55,1.57,4.86,2.31,8.43,3.84.68.29,3.66,1.31,4.34,1.59.04-.1.08-.2.13-.29-1.53-.68-3.06-1.35-4.58-2.04-2.18-.99-4.35-1.99-6.53-2.98-2.59-1.17-4.47-2.15-7-3.44-3.84-1.96-6.46-3.8-9.79-5.95-2.33-1.5-5.22-3.63-7.96-5.79-1.45-1.14-2.83-2.38-4.21-3.61-.24-.22-.29-.66-.5-1.17-2.98-1.22-6.23-2.55-9.48-3.88,0-.04,0-.08,0-.12.26.05.54.06.79.14,5.96,1.98,11.91,3.96,17.87,5.95,3.89,1.3,7.76,2.65,11.67,3.88,6.34,1.99,12.71,3.9,19.07,5.84,3.86,1.17,19.1,6.02,20.2,6.34,2.87.84,13.87,4.32,14.89,4.62,6.05,1.72,19.17,5.51,24.9,5.97,11.48.93,9.59-3.62,9.12-5.83-.07-.33-.01-.75.08-.69,1.76.94,8.77,3.96,10.61,4.72,20.07,8.29,58.4,22.59,85.68,28.24,6.24,1.29,10.75,1.67,17.11,1.52,1.21-.03,1.25-.3,1.03-.72-.44-.53-1.22-1.33-1.84-1.92-4.86-4.62-9.14-8.93-12.85-12.47-1.17-1.12-4.2-4.05-5.43-5.12.59-.98,1.01-1.01,1.82-.05.25-.13.52-.28.74-.4.81.9,1.52,1.83,2.38,2.58.71.61,1.63.96,2.4,1.52,1.69,1.24,3.34,2.52,5,3.81,1.15.9,2.28,1.82,3.41,2.74,1.56,1.26,3.1,2.55,4.69,3.78,1.09.85,2.24,1.61,3.49,2.34-.18-.23-.35-.48-.56-.68-2.2-2.06-4.42-4.11-6.62-6.17-2.52-2.37-5.01-4.75-7.52-7.13-1.17-1.1-2.34-2.2-3.49-3.32-.15-.14-.29-.49-.22-.61.11-.19.43-.41.63-.38,1.87.29,3.75.6,5.61.97,3.1.61,6.18,1.27,9.27,1.92,3.24.68,6.49,1.32,9.73,2.04,3.76.83,7.49,1.76,11.25,2.58,1.53.34,3.1.52,4.69.64-.65-.2-1.3-.42-1.96-.6-1.39-.39-2.78-.78-4.18-1.14-4.09-1.05-8.19-2.08-12.28-3.13-5.61-1.44-11.22-2.93-16.84-4.33-2.33-.58-4.68-1.04-7.04-1.48-.41-.08-1,.08-1.3.35-.45.4-.06.85.25,1.22.05.06.04.16.1.37-3.25-2.83-7.22-4.13-10.85-6.05.02-.09.04-.17.06-.25,1.4.26,2.8.49,4.2.78,3.9.8,7.79,1.6,11.68,2.44,3.13.68,6.25,1.42,9.38,2.12,3.51.78,7.03,1.52,10.53,2.34,4.48,1.04,8.96,2.12,13.43,3.23,2.71.67,5.4,1.44,8.16,2-.46-.19-.9-.43-1.38-.57-2.28-.64-4.56-1.26-6.84-1.87-3.79-1.01-7.59-1.99-11.37-3.02-1.44-.39-2.84-.98-4.29-1.34-2.57-.64-5.16-1.17-7.74-1.77-2.64-.61-5.27-1.3-7.92-1.88-4.1-.89-8.23-1.65-12.32-2.59-2.95-.67-6.06-.88-8.75-2.37-1.9-1.05-3.63-2.41-5.43-3.64-2.9-1.97-5.81-3.94-8.7-5.94-3.22-2.23-6.34-4.64-9.66-6.71-3.39-2.12-6.98-3.94-10.49-5.88-1.96-1.08-3.91-2.17-5.9-3.18-1.26-.64-2.58-1.15-3.89-1.68-.21-.09-.49-.01-.71-.01,9.55,8.37,19.07,16.73,28.6,25.09v.18c-.89-.18-1.79-.34-2.68-.56-2.79-.68-5.58-1.35-8.36-2.07-3.01-.79-6-1.67-9.02-2.44-2.32-.59-4.67-1.06-7-1.63-1.63-.4-3.23-.88-4.85-1.31-2.01-.53-15.76-3.94-17.2-4.29-.09-.02-12.1-2.99-13.23-3.3-4.1-1.11-8.25-2.1-12.31-3.36-2.93-.9-5.93-2.48-8.59-4.06-3.47-2.06-5-2.93-7.68-4.41-2.6-1.43-5.21-2.84-7.83-4.23-2.98-1.58-13.05-6.92-12.89-7.12.71-.74,5.16.02,9.85.86,5.72,1.03,40.38,7.96,41.48,7.26.03-.08.05-.17.08-.26-.76-.51-4.98-2.55-6.32-3.08-1.98-.78-3.96-1.54-5.93-2.36-1.85-.77-6.36-2.41-10.57-4.29-.71-.32-3.16-1.77-3.75-2.33-2.31-2.19,4.96-2.98,6.18-3,1.12-.02,4.98.36,6.09.47,2.12.21,11.93,2.06,14.24,2.53,1.45.29,16.7,3.38,21.71,4.51,3.88.87,7.77,1.69,11.66,2.51,2.74.58,5.48,1.15,8.23,1.72,2.53.53,5.07,1.04,7.59,1.59,1.44.32,3.28.68,4.72.99,2.4.52,4.38,1.04,6.79,1.53,1.02.21,2.03.45,3.04.66.27.06.55.09.87-.09-1.17-.32-2.33-.65-3.5-.97-3.96-1.07-6.05-1.65-10-2.7-.85-.23-3.25-.67-4.44-1.09-1.78-.62-3.04-1.63-4.39-2.69-2.37-1.87-4.69-3.8-7.06-5.67-2.54-2-9.95-7.9-12.09-9.48-3.61-2.66-10.29-7.3-14.36-9.64-1.47-.84-3-1.61-4.52-2.37-.65-.33-1.34-.56-2.05-.77,4.81,2.69,8.61,5.38,11.69,7.37,3.62,2.34,9.34,6.45,16.47,12.18,1.55,1.25,10.44,8.35,12.04,9.73-1.27-.24-12.11-2.47-16.48-3.43-2.99-.66-5.97-1.34-8.97-1.98-1.88-.4-17.83-3.79-21.03-4.4-3.54-.67-7.08-1.33-10.63-1.92-2.75-.46-5.52-.8-8.28-1.19-2.76-.39-5.52-.81-8.29-1.15-2.62-.31-5.26-.53-7.88-.79-3.07-.31-6.14-.65-9.21-.96-1.02-.1-2.04-.15-3.06-.2-2.78-.14-5.57-.29-8.35-.38-4.56-.15-9.13-.16-13.68-.44-2.03-.12-4.06-.64-6.03-1.2-1.46-.41-2.84-1.14-4.22-1.8-3.6-1.74-7.17-3.53-10.77-5.27-3.65-1.76-7.28-3.55-10.98-5.18-4.18-1.85-8.44-3.53-12.66-5.3-1.98-.83-3.91-1.77-5.91-2.51-4.5-1.66-9-3.3-13.55-4.81-3.97-1.32-7.98-2.54-12.03-3.62-3.32-.88-6.71-1.5-10.08-2.2-.71-.15-1.49-.04-2.18-.24-1.22-.35-2.48-.13-3.7-.37-1.28-.25.42-1.61.87-2.01.36-.32.8-.79,1.21-1.02.37-.21.83-.19,1.21-.45.45-.31.82-.79,1.24-1.15.61-.54.98-1.1,1.38-1.8.32-.55.7-1.13,1.34-1.33.23-.07.4-.31.61-.42,1.09-.6,1.9-.99,2.68-1.98.68-.86,2-1.46,3.09-1.37,1.13.09,2.25-.01,3.35-.35.98-.31,1.37-.9,2-1.69.27-.33.65-.64.9-.99.3-.42.42-.94.6-1.42.18-.46.38-.67.71-1.01.25-.26.5-.54.74-.81.55-.63.62-1.03.97-1.8-10.12-1.25-21.73-1.43-26.15-1.09-.32.02-.71.25-.91.5-3.63,4.44-10.26,14.9-14.21,22.29-.3.56-.82,1.16-1.39,1.42-2.98,1.33-5.91,2.74-8.58,4.63-1.15.81-2.33,1.58-3.56,2.29,5.21-10.32,11.94-19.51,19.92-27.81-.05-.08-.1-.16-.15-.24-.26.07-.61.07-.77.23-1.74,1.74-3.42,3.53-5.17,5.27-1.54,1.53-3.16,2.98-4.7,4.52-2.38,2.37-5.66,4.19-7.16,5.17-1.74,1.13-4.81,3.1-4.9,3.16-2.63,2.03-10.46,8.81-15.76,15.23-1.04-2.99-2.91-5.58-2.74-8.85.19-3.5-1.61-5.83-4.51-7.43-3.79-2.09-7.89-3.28-12.11-4.19-3.99-.86-7.99-.96-12.01-.88-8.99.18-11.11,8.02-10.97,9.59.14,1.61.83,5.95,7.98,8.58,1.3.48,3.15.9,4.49,1.29-2.46-1.1-3.44-1.45-5.05-2.31-2.67-1.42-4.21-3.31-5.02-5.02-.31-.66-1.2-2.77-.27-3.79.91,1.07,2.24,1.12,3.4,1.04.95-.07,1.49.23,2.15.73.77.58,1.63,1.08,2.51,1.48.88.4,6.29,1.94,7.98,2.33,1.94.45,4.12.82,6.04,1.34,1.57.42,2.77.6,4.31,1.26,1.16.5,2.17,1.17,2.7,2.1.74,1.29,1.03,2.7,1.61,4.08.74,1.75,1.42,2.34,2.74,2.25.21-.01.43-.08.63-.17,1.18-.52,2.34-1.04,3.59-1.6-.87-2.4-1.53-4.07-2.44-6.31-.97-2.37-2.41-5.4-3.87-7.52-1-1.45-3.04-3.78-7.22-5.38-.3-.12-.62-.22-.93-.32.02-.08.04-.15.06-.23,2.46.21,4.55.95,5.89,1.75,2.49,1.49,4.03,3.71,5.21,6.24.49,1.05,1.19,2.76,1.6,3.85.9,2.38,1.44,4.18,2.36,6.55.13.33.41.6.62.9.13-.07.25-.14.38-.21-.2-.77-.41-1.53-.61-2.3.47.8.8,1.66,1.06,2.53.18.61-.21.88-.76.94-.4.04-.84-.06-1.2.08-2.31.91-4.61,1.87-6.9,2.81-.1.04-.21.07-.58.19.39-.33.57-.48.56-.48-.43-.65-.84-1.2-1.19-1.79-.34-.57-.62-1.18-.94-1.77-1.3-2.38-3.42-2.34-5.46-1.33.17.03.29.07.4.08,1.53.07,3.48,1.22,4.43,3.59.33.8.21,1.8,1.38,2.33-.42.04-.61.11-.79.07-2.2-.41-4.39-.97-6.61-1.22-1.5-.17-3.11-.17-4.57.18-2.69.64-4.82,2.37-6.81,4.23-2.93,2.75-5.81,5.55-8.74,8.3-.19.18-.67.23-.93.13-.37.37-.74.72-1.13,1.06.14.09.28.18.43.27-1.1.72-2.14,1.27-3.04,2-.52.43-1.03.71-1.55.87-1.46.95-2.81,1.71-3.81,2.25.02.01.05.02.07.04-.86.7-1.72,1.4-2.57,2.1l.14.35c.33,0,.66.05.98,0,1.88-.34,3.63-1.13,5.24-2.04,1.33-.75,2.31-2.1,3.45-3.17,1.63-1.52,3.02-3.33,5.06-4.39.23-.12.35-.44.69-.87-.08.33-.1.41-.11.5-.01.09-.01.19-.02.38.22-.19.41-.35.69-.59,0,.31.06.52,0,.64-.93,1.65-1.89,3.29-2.83,4.94-.27.48-.77,1.13-.04,1.48.58.28,1.4.34,2.04.19.47-.12.88-.69,1.2-1.14,1.61-2.33,3.16-4.7,4.79-7.01,1.13-1.62,2.31-3.22,3.56-4.76.45-.56,1.14-.91,1.86-1.27-1.53,2.3-3.07,4.6-4.8,7.2,1.27-.32,2.31-.58,3.49-.87-.27-.32-.44-.52-.69-.82,1.56.08,3.14.16,3.41-1.95-.15.12-.29.27-.46.36-.08.04-.27-.03-.32-.1-.05-.08-.04-.26.02-.35.24-.33.5-.64.79-.99.05.23.11.51.18.87.76.13,1.55.27,2.39.42.03-.05.12-.22.25-.47.34,1.11,1.05,1.67,1.77,1.43-.11.27-.22.49-.28.73-.04.19,0,.39,0,.72-.2-.17-.3-.26-.41-.36-.24.28-.21,1.07-.73.63-.95.87-1.89,1.68-2.79,2.55-.43.42-.76.94-1.14,1.41-.07.09-.12.23-.21.28-1.86,1.03-2.88,2.94-4.46,4.27-1.2,1.01-1.85,2.34-2.49,3.7-.27.57-.01.8.53.79,1.76-.03,3.33-.67,4.75-1.66.82-.57,1.5-1.33,2.33-1.87.83-.53,1.74-.96,2.67-1.27.47-.15,1.16-.25,1.45.52.05.12.35.18.55.21.25.04.57.11.76,0,.83-.5,1.04,1.87,2.02.41.92.09,1.84.17,2.75.26.02,0,.02.05.1.2-.53.06-1.03.11-1.52.17,0,.1,0,.19,0,.29.46,0,1.03.17,1.34-.05.32-.22.39-.81.57-1.24.46,1.27.39,1.27-.66,2.89-.61.94-1.15,1.77-2.18,1.56-.23.77-.41,1.38-.63,2.13.27-.32.45-.54.71-.85-.13,1.79-1.06,2.89-2.35,3.88-1.97,1.51-3.86,3.13-5.72,4.76-1.41,1.24-2.79,2.53-4.08,3.89-1.38,1.46-2.75,2.95-3.96,4.55-2.4,3.18-4.82,6.37-6.98,9.71-2.02,3.12-3.74,6.44-5.54,9.7-.93,1.68-1.73,3.44-2.61,5.15-.06.13-.22.21-.47.44,1.4-13.81,3.73-27.23,8.64-40.12l-.32-.1c-.39.96-.83,1.9-1.16,2.88-.96,2.87-1.78,5.79-2.86,8.6-.38,1-1.38,1.76-2.16,2.69,2-6.93,3.43-13.8,4.3-21.02-.4.21-.64.28-.81.43-.27.22-.55.47-.75.75-1.61,2.33-4.15,2.62-6.63,3-.34.05-.84-.44-1.13-.79-.2-.23-.12-.68-.25-.99-.1-.25-.34-.46-.51-.68-.2.23-.5.42-.58.69-.11.36-.07.77-.06,1.15.06,2.44.25,4.89.15,7.32-.1,2.5-.47,5-.78,7.49-.04.29-.47.52-.71.78-.36.37-.84.69-1.04,1.13-.73,1.64-1.44,3.3-2.03,4.99-.67,1.93-1.21,3.91-1.8,5.86-.77,2.56-1.59,5.11-2.3,7.69-1.2,4.31-2.36,8.62-3.48,12.96-1.03,4-2.03,8.01-2.96,12.03-1.14,4.95-2.23,9.91-3.25,14.89-.73,3.59-1.36,7.21-1.91,10.83-.28,1.86-.31,3.75-.41,5.63ZM118.32,64.59c-.75.63-1.46,1.26-2.21,1.84-.18.14-.48.13-.72.19.04-.24.01-.53.14-.71.2-.28.49-.5.76-.72.5-.42,1.02-.81,1.58-1.25.12.17.33.47.46.65ZM113.84,53.8c-.65,1.01-1.29,2.02-1.94,3.04-1.19,1.85-2.36,3.7-3.57,5.54-.24.37-.61.65-.98,1.05,0,.01.1.16.33.55-.57-.17-1.04-.19-1.3-.42-.15-.14-.1-.7.05-.95,1.39-2.21,2.8-4.4,4.26-6.56.15-.22.32-.95.91-.4.22-.25.46-.49.63-.78.06-.09-.08-.3-.13-.46.16-.14.31-.27.47-.41.1.22.2.44.28.62.17-.2.49-.57.81-.94.06.04.12.09.17.13ZM128.29,29.62c4.14,2.15,6.97,5.26,8.7,9.49.46,1.12.78,2.3,1.17,3.45-.1.06-.2.12-.29.18-.45-.17-1.04-.21-1.31-.52-.72-.83-1-1.89-1.25-2.96-.24-1.03-.48-2.11-.96-3.04-.53-1.05-1.19-2.1-2.04-2.89-1.11-1.03-2.38-1.94-3.72-2.62-1.77-.91-4.04-1.85-5.96-2.29-2.23-.51-4.07-.95-6.35-1.3-2.93-.45-5.83-.81-8.79-.68-1.18.05-1.65-.43-2.06-1.63-.3-.87.09-1.06.77-1.05.79.01,2.88.31,3.65.47,3.33.69,5.41,1.04,8.7,1.92,3.33.89,6.62,1.87,9.75,3.5ZM139.06,31.72c-.72-2.85-1.41-4-2.56-6.08,2.58,1.43,2.54,4.11,2.56,6.08ZM140.99,50.47c-.19.19-.36.41-.58.56-.52.35-1.06.66-1.6.99-.01.06,0,.16-.03.19-1.48.93-2.96,1.86-4.51,2.82-.27-1.22-.5-2.29-.74-3.36.04,0,.08-.01.11-.02.3.88.6,1.76.91,2.65.65-.42,1.22-.74.96-1.66-.45-1.62-.82-3.27-1.17-4.92-.1-.46-.01-.96-.01-1.63.76.32,1.33.41,1.64.74.28.3.26.87.4,1.31.35,1.04.79,2.02,1.61,2.79.26.24.41.58.62.88.12-.59.25-1.17.36-1.7.07.09.21.27.29.38,1.37-2-.05-3.28-1.21-4.63.25-.03.52-.06.93-.11-.88-.4-2.04.64-2.5-.89.85-.11,1.67-.31,2.49-.29.79.02,1.84,2.09,1.66,3.02-.2,1-.35,2.02-.52,3.05.24-.16.45-.29.66-.43.08.09.16.17.24.26ZM145.03,46.65c-1.92,3.42-3.71,6.61-5.5,9.79,1.61-3.31,2.94-6.75,5.5-9.79ZM141.94,49.48c-.18-.82-.35-1.63-.53-2.44.11-.03.22-.05.33-.07-.01.85,1.41,1.4.19,2.51ZM143.12,47.98c-.7-1.41-1.41-2.83-2.11-4.26,1.34-.67,1.37-.66,1.87.7.14.38.22.81.45,1.14.61.87.68,1.66-.2,2.42ZM346.1,98.32c-.76-.56-1.59-1.03-2.37-1.57-2.75-1.92-5.52-3.82-8.22-5.8-1.64-1.2-3.15-2.59-4.79-3.8-1.64-1.2-3.37-2.28-5.06-3.41.03-.07.07-.13.1-.2.48.2.97.39,1.44.61,1.35.65,2.67,1.38,4.06,1.97,2.08.89,3.64,1.9,6.45,3.12,3.69,1.6,7.21,2.55,11.06,3.62,5.41,1.5,10.86,2.83,16.31,4.19,3.89.97,7.78,1.89,11.68,2.81,3.81.9,7.62,1.75,11.42,2.67,3.71.89,7.41,1.83,11.11,2.78,3.88,1,7.73,2.07,11.62,3.04,3.64.91,7.31,1.72,10.96,2.58.73.17,1.57.19,2.16.59,2.32,1.54,4.57,3.18,6.81,4.83,2.6,1.91,5.18,3.86,7.75,5.82.89.68,1.72,1.42,2.58,2.13l-.13.21c-.9-.17-1.81-.27-2.69-.51-8.07-2.17-16.13-4.37-24.19-6.56-3.44-.94-6.85-1.96-10.31-2.82-8.27-2.05-16.55-4.01-24.83-6.03-4.84-1.18-9.69-2.31-14.5-3.6-3.34-.89-6.66-1.91-9.93-3.04-2.91-1-5.95-1.75-8.49-3.63ZM251.01,98.42c-.42-.22-.66-.31-.85-.45-1.63-1.22-3.33-2.38-4.87-3.72-1.21-1.05-2.54-2.11-2.97-3.78.09-.07.18-.14.27-.21.33.42,1.15,1.24,1.48,1.66.36.46,1.63,1.55,2.1,1.97.65.59,1.51,1.64,4.84,4.52ZM230.34,82.23c.04-.11.07-.22.11-.33.7.3,1.68.4,2.04.93.95,1.35,2.37,2.17,3.39,3.41.47.57.97,1.11,1.53,1.73.13-.25.29-.47.26-.51-.82-.87-1.67-1.72-2.64-2.71.3,0,1.48.95,1.92,1.41,1.24,1.32,2.52,2.61,3.71,3.97,1.67,1.9,3.66,4.42,5.57,5.94,1.73,1.37,5.01,3.45,6.86,4.65.89.58,2.93,1.86,3.86,2.39,1.45.83,2.34,1.41,3.75,2.3,1.36.87,4.06,2.34,4.21,2.43.85.5,1.42.78,2.27,1.28.75.44,1.54.8,2.32,1.2.6.31,1.21.6,1.82.91-4.13-2.05-10.91-4.04-17.35-7.72-1.95-1.11-3.84-2.32-5.72-3.55-1.03-.67-2.76-1.76-3.67-2.58-.53-.49-4.1-3.35-5.03-4.3-1.03-1.05-2-2.16-2.94-3.28-.55-.65-.34-1.79-1.19-2.19-.32-.15-.34-.93-.51-1.48,0,0-.18.03-.5.09.5-.81.05-.88-.57-.94-.7-.07-1.19-.45-1.22-1.24-.04-.95-.6-1.52-1.52-1.63-.25-.03-.5-.12-.75-.18ZM210.24,65.94c-1.31-1.67-2.77-3.24-3.52-5.3-.15-.42-.44-.79-.67-1.18.68,3.34,2.26,6.22,4.42,8.78-.27.3-.52.57-.97,1.06-.41-1.05-.76-1.92-1.1-2.77-.06.1-.15.25-.24.39-.09-.46-.18-.88-.3-1.5-.15.4-.47.52-.54.7-.35-3.12-2.14-5.51-2.82-8.43-.21.32-.39.59-.64.98-.72-2.14.07-3.66-.03-5.13,0,.64-.29.36-.29,1-.09,0-.19,0-.28-.01.1-1.75-.03-3.55.37-5.23.59-2.46,1.22-4.71,2.19-7.06,1.21-2.92,3.66-5.05,6.64-6.17,3.04-1.14,6.82-.84,9.85-.4,3.15.46,5.15,1.04,8.65,1.94-.02.1-.06.47-.08.58-2.76-.77-5.03-1.2-6.58-1.57-2.41-.57-4.87-.76-6.6-.87,1.42.44,2.91.49,4.3.89,4.58,1.33,9.14,2.76,13.69,4.22,6.26,2.01,12.27,4.65,18.13,7.59,4.11,2.07,8.16,4.26,12.22,6.42,3,1.6,6,3.21,8.97,4.86,4.28,2.38,8.53,4.79,12.79,7.19,3.05,1.72,6.11,3.4,9.13,5.17,4.86,2.85,9.71,5.71,14.51,8.65,5.55,3.39,11.08,6.81,16.55,10.33,3.02,1.94,5.92,4.08,8.81,6.23,1.48,1.11,2.81,2.42,4.21,3.64.24.15,3,2.73,4.14,3.87.17.17.29.37.44.55-.07.07-.15.13-.22.2.11-.1-2.59-2.27-2.88-2.46-1.4-.91-2.39-.36-3.93-.56-1-.13-2.21-.56-3.2-.74-1.97-.36-3.93-.82-5.87-1.31-1.95-.49-3.88-1.03-5.82-1.55-.97-.26-1.94-.52-2.91-.77-.5-.13-1.01-.26-1.52-.38-.26-.06-1.05-.4-1.29-.31.24-.09.47-.14.69-.08,5.5,1.29,10.99,2.61,16.5,3.87.9.21,1.85.19,2.78.28.02-.11.05-.22.07-.33-.31-.28-.64-.55-.92-.85-.42-.46-1.17-.97-1.14-1.42.05-.91-.49-1.29-.98-1.74-.67-.61-1.37-1.2-2.12-1.73-2.78-1.95-5.54-3.94-8.39-5.79-2.83-1.84-5.75-3.53-8.63-5.28-1.27-.77-2.49-1.63-3.83-2.25-1.7-.78-3.47-1.35-5.08-2.37-1.56-.99-3.31-1.68-5.27-2.65.16.74.18,1.31.41,1.79,1.7,3.7,1.62,7.42.08,11.12-1.37,3.27-4.31,4.46-7.42,5.34-.12.03-.3-.16-.65-.36,1.8-.02,2.73-.91,3.42-2.54-.74.38-1.25.65-1.69.87.45-.76,1.2-1.52,1.32-2.37.21-1.47.98-2.56,1.64-3.79.53-.99.7-2.18,1-3.18,0-.02.05.13.1.27.09-.02.18-.05.27-.07-.33-1.48-.66-2.96-1-4.45.22.34.45.7.76,1.18.25-.88.5-1.63.65-2.4.05-.24-.1-.62-.29-.79-.9-.84-1.79-1.68-2.77-2.41-.71-.52-1.56-.86-2.34-1.28.03-.09.07-.18.1-.27,1.09.36,2.18.72,3.28,1.07-3.11-1.89-6.47-2.45-9.72-.81-4.69,2.37-6.77,6.49-6.71,11.98-.21-.41-.35-.57-.35-.73,0-.96-.1-1.87-.79-2.63-.15-.17-.25-.51-.19-.73.67-2.67,1.53-5.23,3.94-6.92.55-.39,1.04-.88,1.55-1.32-.05-.07-.11-.14-.16-.2-.74.49-1.47.98-2.04,1.36-1.59-1.35-3.17-1.24-5.05-.41.72-1.26.71-2.65,2.13-3.12-.29.41-.58.83-.86,1.25.65-.13,1.12-.43,1.63-.58.5-.16,1.04-.17,1.57-.24.15.21.3.58.57.75,1.04.67,3.3-.15,3.84-1.29.13-.27.52-.62.77-.61,1.84.11,3.68.31,5.31.45.12.11.04,0-.07-.06-2.41-1.07-4.81-2.15-7.24-3.18-.73-.31-1.36-.61-1.77-1.39-.59-1.15-2.53-1.37-3.57-.57-.15.12-.47.02-.71.02v-.17c.17-.07.35-.13.72-.28-.64-.58-1.12-1.21-1.75-1.57-1.54-.87-3.15-1.62-4.73-2.41-1.06-.54-2.12-1.08-3.2-1.59-2.09-1-4.22-1.93-6.29-2.97-1.73-.87-3.36-1.92-5.1-2.77-1.8-.88-3.67-1.61-5.51-2.4-.64-.28-1.3-.52-1.92-.84-.7-.37-1.33-.78-2.23-.59-.52.11-1.15-.12-1.68-.33-1.08-.43-2.11-.97-3.18-1.43-1.92-.82-3.85-1.6-5.77-2.41-.56-.23-1.11-.5-1.67-.74-.77-.32-1.56-.59-2.32-.93-1.02-.45-2.03-.95-3.04-1.43.05-.12.1-.24.14-.37,2.48.65,4.96,1.29,7.62,1.99-2.68-3.29-21.56-8.71-26.32-7.63.67.05,1.23.09,1.79.13-1.14.34-2.25.43-3.3.72-1.23.33-2.57.91-3.5,2.01-1.12,1.34-1.99,3.03-2.49,4.64.3-.13.56-.19.76-.33,2.11-1.49,4.09-3,6.64-3.64,2.23-.56,4.64-.79,6.95-.33,1.64.32,3.12,1.04,4.58,1.95-2.65-.76-3.97-1.14-4.54-1.23-2.31-.39-4.79-.03-7.04.71-.37.12-3.7,2.2-4.1,2.56-1.34,1.22-2.68,2.45-3.98,3.71-.23.22-.28.63-.41.95.52-.32.83-.96,1.24-1.04,1.15-.2,1.72-1.07,2.52-1.72.94-.76,1.9-1.58,3-2.04,2.17-.91,6.63-1.58,10.34-.86,2,.39,4.21,1.51,5.88,2.87,2.36,1.92,4.12,4.12,5.23,6.96-.23.1-.59.3-.62.26-.45-.66-1.71-.25-1.83-1.38-.01-.15-.48-.34-.73-.35-1.32-.03-2.64-.05-3.95.01-.68.03-1.36.19-2.01.41-.25.08-.45.45-.58.73-.1.23-.07.53-.09.8-.09.02-.19.04-.28.07-.16-.37-.33-.75-.54-1.21q-1.54-.29-1.4.57c-.17-.25-.28-.52-.29-.8-.04-1.3-.25-1.51-1.59-1.48-.05.58-.09,1.17-.14,1.75.08,0,.17.01.25.02.06-.18.12-.35.17-.53.08.06.17.12.25.18-.22.26-.43.52-.64.78.42.35.82.73,1.27,1.04.43.31.91.55,1.37.82-.22.17-.36.19-.47.14-1.2-.62-2.16-1.75-3.72-1.59-.29.03-.68-.15-.88-.36-.36-.37-.61-.84-.98-1.37-.55.93-.95,1.61-1.45,2.46.16-.72.15-1.36.43-1.8.33-.51.21-.83-.18-1.06-.47-.28-1.01-.44-1.52-.65-.04.08-.09.16-.13.23.26.16.52.32.76.47q-.74.86-.21,1.8c.06.11.02.28.09.38.73,1.09,1.32,2.35,2.26,3.23.99.93,2.32,1.49,3.49,2.23.47.29.9.65,1.49,1.09.06-.54.08-.8.11-1.07-.1.47,1.24.77.21,1.23,1.7,1.46,3.35,2.89,5.01,4.31-.07.08-.13.16-.2.25-3.39-2.55-6.78-5.11-10.17-7.66-.07.1-.14.19-.22.29.27.22.56.42.81.66.62.58,1.46,1.01.93,2.17-.16.36.1,1.14.44,1.45,1.73,1.58,3.54,3.07,5.35,4.56.12.1.5-.1.62-.13.41.61.85,1.25,1.37,2.01.21-.53.34-.87.47-1.22.33.54.38,1.11.53,1.65.08.3.33.56.61,1.04.17-.29.28-.4.3-.52.15-.99.26-1.99.45-2.98.06-.32.34-.61.52-.91.06.26.19.52.17.77-.09,1.22-.24,2.44-.3,3.66-.02.35.06.83.29,1.05.46.44,1.03.78,1.6,1.07,1.89.98,3.81,1.9,5.69,2.89,2.06,1.09,4.09,2.24,6.14,3.35.37.2.78.32,1.16.48.35.15.7.3,1.05.46-.05.09-.09.19-.14.28-6.01-2.75-11.95-5.62-17.51-9.47-.13.32-.26.64-.42,1.04-.13-.15-.31-.35-.31-.35-.43.34-.83.39-1.21-.08-.08.17-.25.46-.23.48.67.51,1.33,1.09,2.08,1.46,1,.5,2.14.72,3.11,1.26,1.55.87,2.97,1.96,4.52,2.84.87.49,1.88.73,2.83,1.09-.67.04-1.29-.12-1.9-.07-1.16.09-2.3.34-3.46.46-.62.07-1.25.01-1.88.01-.01.09-.03.18-.04.28,2.02.76,4.05,1.52,6.1,2.29,0,.03-.03.09-.04.14.24,0,.49-.09.71-.02,1.36.41,2.72.84,4.07,1.28,1.64.53,3.27,1.09,4.93,1.57,1.78.52,3.58.95,5.37,1.43.37.1.73.25,1.1.36.86.26,1.73.54,2.6.77.48.13,1.01.09,1.47.26,1.63.61,3.24,1.27,4.85,1.91l.09.02.1-.02c.06.03.12.04.18.04.07.07.14.13.2.2.07.05.14.1.21.15.06.03.12.04.18.04.05.04.1.09.15.13.03-.05.05-.09.08-.13.33.05.66.11.98.16.06.02.12.03.17.03.01.06.02.12.04.17.06.01.11.02.17.03-.06.07-.12.14-.18.21.12.05,1.24.13,1.48.13-.07-.18-.14-.35-.26-.63,1.36.36,2.61.7,4.01,1.07-.17-.29-.25-.42-.24-.4,1.57.15,3.23.32,4.88.48.01-.06.03-.13.04-.19-.16-.14-.33-.28-.49-.42.02-.04.05-.07.07-.11.48.17.95.34,1.42.51,0,.08,0,.16,0,.24-1.33.16-2.66.31-4.04.47,1,.72,2.03,1.46,3.05,2.2.04-.05.09-.1.13-.15l-.88-1.18c.69.34,1.3.79,1.92,1.22.18.12.53.3.57.26.73-.84,1.11.07,1.58.33.64.36,1.24.81,1.8,1.19h.02c-.32-.49-.66-1.01-.9-1.38.75.5,1.64,1.09,2.53,1.68.03-.03.06-.07.09-.1-.36-.4-.71-.79-1.07-1.19.03-.03.06-.06.1-.09,1.02.72,2.03,1.45,3.05,2.17.14.04.27.08.41.12-.36-.5-.71-1.01-1.02-1.45.93.67,1.91,1.39,2.9,2.1.04.02.08.03.12.05.06-.07.12-.13.18-.19-.33-.37-.67-.74-1-1.11.04-.04.08-.07.12-.11.96.71,1.93,1.41,2.89,2.12.07.02.14.03.21.04.04-.06.09-.11.13-.17-.39-.43-.77-.86-1.16-1.29.91.47,1.67,1.16,2.47,1.77.49.14.97.31,1.46.48-.66-.53-1.31-1.06-1.96-1.59.05-.05.09-.11.14-.16.92.68,1.84,1.36,2.76,2.04.35.1.7.17,1.06.22-.2-.18-.39-.35-.59-.53.04-.05.08-.09.12-.14.47.3.94.6,1.41.91.33.13.66.25.99.38.02-.03.04-.06.06-.09-.45-.42-.91-.85-1.36-1.27,1.01.47,1.82,1.23,2.74,1.91.17.06.33.13.5.19.08.03.2-.01.29,0,.17.03.34.07.51.1-.59-.49-1.14-.95-1.68-1.4.89.36,1.62.99,2.37,1.56.02,0,.04,0,.06.01.21.06.48.33.57.27.19-.11.35-.16.5-.17-.04-.04-.08-.08-.13-.11.03-.03.06-.07.08-.1.14.09.29.19.43.28.27.11.51.32.77.51.1.07.2.13.3.2.18.11.36.2.45.15.14-.09.28-.14.41-.16-.35-.28-.69-.57-1.03-.85.55.21,1.02.54,1.49.89.17.06.34.17.52.3.25.19.72.45.87.34.09-.06.18-.1.26-.12-.18-.15-.36-.3-.54-.45.5.11.85.4,1.22.65,0,0,.01,0,.02.01.07.04.14.08.21.11.45.17.9.35,1.39.54-.01.03-.02.12,0,.21.01.05.3.09.31.07.23-.55.45-.2.7-.02.24.18.52.32.99.6-.21-.35-1.02-1.18-1.39-1.41.08-.11.15-.21.22-.32.69.54,1.39,1.07,2.08,1.61.03,0,.06-.01.08,0,.95.31,1.88.7,2.84.95,1.15.3,2.48.63,3.63.94,1.55.42,3.71.96,5.25,1.4,1.95.55,3.15.84,5.11,1.39,2.91.82,5.81,1.68,8.73,2.49,1.3.36,2.62.72,3.95.92,1.33.2,3.05.54,4.39.69,1.55.17,2.65.41,4.31-.22,1.42-.54,2.48-1.65,2.18-2.53-.28-.8-.57-1.67-1.09-2.31-.88-1.09-1.92-2.04-2.93-3.02-1.34-1.31-2.78-2.53-4.06-3.9-2.24-2.39-4.8-4.4-7.48-6.24-3.02-2.08-6.08-4.1-9.18-6.05-3.5-2.21-7.05-4.33-10.6-6.45-5.21-3.11-18.96-11.33-19.5-11.6-.7-.45-5.46-3.01-5.64-3.11-4.69-2.59-9.36-5.2-14.05-7.8-3.11-1.72-6.21-3.45-9.33-5.16-1.35-.74-2.72-1.45-4.1-2.14-3.74-1.85-7.49-3.68-11.22-5.54-.18-.09-.25-.42-.36-.64.06,0,.11-.01.17-.04,1.08.12,1.89.47,3.14.82,1.05.29,1.98.76,2.99,1.17,2.08.84,4.17,1.67,6.25,2.51,1.52.6,17.79,8.45,21.07,10.18,2.11,1.11,7.83,4.32,10.34,5.67,1.89,1.02,12.47,7.32,14.66,8.74,1.88,1.22,5.76,3.57,8.58,5.52,2.25,1.55,5.28,3.56,7.46,5.19,1.97,1.47,8.9,6.87,10.81,8.42,9.27,7.51,14.6,13.49,15.91,15.36,1.01,1.44,1.12,3.67-.41,4.4-1.2.57-2.65.84-3.81.82-2.16-.04-4.41-.08-7.19-.67-4.47-.95-8.87-2.2-13.29-3.39-7.67-2.06-15.36-4.08-22.99-6.29-7.06-2.04-14.06-4.28-21.07-6.46-4.3-1.34-8.59-2.74-12.88-4.1-4.96-1.56-9.93-3.09-14.89-4.65-1.77-.56-3.53-1.16-5.3-1.74-2.21-.72-13.7-5.04-16.74-6.44-2.96-1.36-7.56-3.74-10.41-5.32-4.16-2.3-8.23-4.78-11.23-8.6ZM296.37,79.91s0,.05,0,.07c-.01,0-.03,0-.04,0-.34.89-1.19.64-1.85.77-1.23.26-1.91-.08-2.54-1.14,1.46.12,2.92.24,4.39.36,0,0,0-.01.01-.02,0,0,.03.03.03.03l-.03-.03s.02-.03.02-.04c-.05-.49.01-1.06-.23-1.42-.48-.7-1.08-1.37-1.77-1.88-1.67-1.22-3.56-1.81-5.7-1.59.33-.22.67-.41,1.01-.41,2.03,0,3.86.59,5.5,1.84.85.65,1.49,1.37,1.68,2.39.06.31-.3.7-.49,1.06ZM290.69,80.39c.61.73.95,1.68,1.41,2.53-1.38-1.89-2.72-3.71-4.93-4.7-1.54-.69-1.87-.64-2.81.75-.18.26-.38.5-.57.75-.07-.05-.14-.09-.21-.14.46-.67.88-1.38,1.41-1.99.18-.21.64-.26.97-.25,2.17.07,3.5,1.55,4.74,3.04ZM296.27,91.39c-1.14,1.06-2.54,1.09-3.94.66-2.16-.67-3.5-2.27-4.44-4.27,2.12,2.77,4.39,5.12,8.38,3.61ZM271.4,84.28c1.72-1.58,1.8-2.34,2.3-4.2.94,1.55-.51,4.15-2.3,4.2ZM246.47,60.26c-.14-.16-.02-.72.16-.97.12-.17.55-.12.82-.21.4-.14.81-.28,1.16-.52.25-.17.37-.55.61-.74,1.53-1.2,3.15-2.16,5.11-2.6,2.65-.6,5.22-.82,7.65.62.97.57,1.83,1.32,2.74,1.99l-.17.23c-1.66-.95-3.37-1.78-5.52-1.93.81,1.06,1.5,1.97,2.19,2.89-.59-.1-.98-.39-1.41-.6-1.59-.77-3.19-1.52-4.8-2.26-.93-.43-1.55-.29-1.52.81-1.03.22-1.99.43-2.71.59-.36,1.57-.67,2.93-1,4.35.45-.12.77-.21,1.17-.32-1.02,1.35-1.03,1.56-.11,1.83-.86,1-.8,1.19.48,1.46.13.03.27-.02.39.02.71.2,1.42.38,2.09.65.13.05.08.53.11.81-.23-.07-.47-.1-.67-.21-.37-.19-.68-.56-1.06-.63-.83-.15-1.69-.23-2.53-.2-.56.02-1.15.2-1.66.46-.65.32-1.22.78-1.82,1.19-.79.54-1.57,1.08-2.36,1.63-.09-1.88.28-2.55,1.85-2.92.63-.15,1.44-.24,1.25-1.3-.55-.16-1.11-.32-1.82-.52.42-.8.82-1.61,1.25-2.4.21-.39.58-.68.11-1.18ZM256.08,67.77c2.66-.78,6.72.72,6.98,2.4-.97-.58-2-1.45-3.18-1.86-1.21-.42-2.57-.38-3.8-.54ZM260.9,71.9c.49.08.9.14,1.32.21,0,.03,0,.07,0,.1-.29.02-.57.03-.64.04-.34.35-.65.78-.74.74-.5-.24-.96-.59-1.47-.93.62-.52,1.22,1.36,1.54-.16ZM263,82.18c-.78.96-1.81.58-2.66.52-1.48-.1-3.95-2.49-4.25-4.14,1.8,2.54,3.55,4.65,6.91,3.62ZM253.12,70.13c2.11-1.38,5.63,1.87,6.09,4.41-1.52-2.21-2.97-4.45-6.09-4.41ZM250.7,77.15c-.16-.23-.29-.35-.33-.49-.26-.96-.51-1.92-.74-2.89-.03-.13.03-.3.07-.44.58-2.5,1.85-4.59,3.97-6.04,2.35-1.6,5.07-1.75,7.79-1.58.63.04,1.24.38,1.86.58-3.44-.91-6.36-.11-9.12,2.12-2.83,2.28-3.6,5.24-3.5,8.74ZM267.12,62.66c.18.06.42-.08.75-.15.62.56,1.59,1.13,1.22,2.47-.46-.53-.86-1-1.24-1.44-.34.83-1.05.29-1.64.33.15.51.3,1.01.45,1.51-.09.06-.18.11-.26.17-1.82-1.19-3.31-2.71-4.67-4.56.27-.03.41-.09.52-.06,1.62.57,3.24,1.17,4.87,1.73ZM268.84,79.41c-1.98,5.1-5.84,6.57-9.96,5.98.65-.32,1.62.42,1.96-.7.74.76,1.33.36,3.09-1.09-.81-.69-1.15.55-1.89.46.55-.59,1.21-1.07,1.53-1.71.31-.61.28-1.39.34-1.79.49-.5.82-.85,1.17-1.21v.88c.87-1.4,1.38-2.79,1.27-4.25-.1-1.36-.56-2.7-.86-4.04.91,2.07,1.95,4.11,1.05,6.47,2.61-1.74,1.9-4.05,1.37-6.55-.43.33-.74.57-1.25.97.59-1.7.55-3.16-.82-4.32,3.26,2.21,4.4,7.28,3,10.88ZM237.96,66.76c-.69.35-1.06-.05-1.61-.24-.75-.26-.81-.77-.65-1.27.11-.34.61-.57.93-.84.23-.14.45-.66.5-.65,1.12.36,1.42-.47,1.76-1.25.09.02.18.04.27.05.11,1.48.23,2.95.35,4.54-.64-.16-1.22-.51-1.54-.35ZM234.68,58.45c.61.12.98.31.61,1.06-.39.77-.63,1.61-.93,2.4-.11-.3-.23-.62-.37-1-.13.17-.22.26-.29.37-.87,1.16-.4,2.54-.58,3.8-.22,1.59-.32,1.94-1.48,2.34.19-.41.34-.75.5-1.08.23-.49.47-.97.7-1.46l-.39-.14c-.09.41-.17.82-.26,1.24-.33-1.04.78-2.23-.5-3.1-.82-.56-1.65-1.1-2.42-1.6-.18-1.31-.34-2.7.23-3.99h.73c.18.57.32,1.03.47,1.5.1-.03.2-.05.3-.07.12-.42.23-.84.35-1.27.22.09.43.18.63.26-.19-.44-.36-.83-.62-1.42.55.39.89.63,1.32.93.69-.97.58-2.04.3-3.14,1.51.3,1.89.69,1.88,2.02,0,.78-.11,1.56-.18,2.35ZM232.17,55.65c-.67-.44-.69-.56-.35-1.87.29.11.57.21.82.3-.17.55-.31,1.04-.47,1.57ZM229.76,67.57c.23-.97.43-1.84.64-2.72.07-.04.14-.07.22-.11.08.53.25,1.07.21,1.6-.06,1.02-.26,2.02-1.15,2.63-.06-.46-.12-.9-.19-1.4h.27ZM228.37,57.91c-.04.32-.21.63-.37,1.04-.31-.61-.58-1.16-.89-1.76,1.1-.41,1.37-.28,1.25.72ZM225.04,54.04c.06-.08.13-.16.19-.24.22.23.65.48.63.68-.12.94-.37,1.86-.57,2.79-.19-.08-.37-.16-.61-.26.71-.51.91-2.66.35-2.96ZM282.39,69.03c-1.01-.24-1.91-.45-2.82-.66.29-.37.69-.89,1.12-1.38.18-.2.45-.32.68-.48.12.28.35.56.34.84-.01,1.15.05,1.2,1.18.8.39-.14.8-.2,1.22-.29-.11,1.38-1.1,1.7-2.35,2.03.24-.33.37-.51.62-.86ZM287.56,70.44c-.99.16-1.9.31-3.07.5,1.08-.89,2.07-1.02,3.07-.5ZM158.04,66.32c.61.03,1.75.36,1.98.04.39-.55.22-1.5.29-2.29,0-.06,0-.13,0-.19-.25-2.79-.53-5.58-.75-8.36-.07-.83-.01-1.67-.01-2.51.09-.02.19-.04.28-.06.31.63.66,1.25.92,1.9.59,1.46,1.28,2.9,1.65,4.42.31,1.26.88,2.11,2.03,2.61,4.21,1.84,8.66,2.7,13.18,3.33,2.62.36,5.24.87,7.8,1.53,4.04,1.04,7.81,2.78,11.3,5.06,2.03,1.33,3.49,2.53,4.49,4.95,3.79-1.01,7.71-3.4,10.69-4.51-1.41.89-2.65,1.74-4.11,2.52-1.81.97-3.77,2.12-5.69,2.77-3.38,1.14-6.84.82-10.22-.26-5.19-1.66-10.37-3.37-15.55-5.06-2.85-.93-5.7-1.85-8.55-2.76-3.27-1.05-6.54-2.1-9.71-3.12ZM144.84,43.71c-.84-1.28-.29-1.71.53-2.86,1.65-2.34,7.75-8.74,13.77-14.05.41-.29,3.01-2.63,4.9-3.86-6.65,6.7-13.37,13.3-19.19,20.77ZM155.16,43.6c-1.63-1.04-1.99-1.09-3.55-1.3,1.42-.59,2.72-.44,3.55,1.3ZM135.13,69c.15-.46.2-.7.3-.93,2.46-5.39,4.46-10.99,7.45-16.13,1.3-2.24,2.65-4.43,4.5-6.3,1.86-1.88,4.93-1.43,6.22.67,2.13,3.46,2.77,7.34,3.39,11.23.3,1.91.39,3.85.58,5.87-7.93-.27-15.23,2.06-22.44,5.58ZM128.71,72.39c.93-1.61,1.59-3.42,3.22-4.77-.26-.61.32-.5.86-.5.3,0,.6-.11.89-.17.26-.06.52-.14.84-.22-.09.39-.13.63-.19.87-.39,1.42-.79,2.81-2.69,2.84-.26,0-.53.31-.77.51-.67.54-1.31,1.1-1.97,1.65-.07-.07-.13-.14-.2-.21ZM92.24,93.24c-.39,3.15-.78,6.29-1.17,9.44-.03-3.16.06-6.35.75-9.48l.42.04ZM94.69,77.36c.76-.61,1.17-.79,1.62.1.27.55.44,1.29.31,1.86-.36,1.66-.92,3.27-1.35,4.91-.4,1.52-1.26,2.5-2.96,2.75,0-.24-.03-.44,0-.62.29-1.65.53-3.3.9-4.93.32-1.4.11-2.96,1.47-4.06ZM94.19,74.86c.18-.2.31-.49.53-.57.85-.32,1.71-.62,2.59-.81.27-.06.66.21.91.43.12.1.05.44.08.93-1.58-1.37-2.7-.24-3.91.23-.07-.07-.14-.14-.21-.21ZM99.83,72.54c-2.33-.52-4.34.26-6.25,1.46,1.31-1.67,5.15-2.63,6.25-1.46ZM97.9,85.17c-.05.23-.34.41-.52.61-.06-.06-.11-.12-.17-.17l2.79-10.3c.09.03.18.06.28.09-.2.62-.46,1.22-.6,1.85-.61,2.63-1.17,5.28-1.78,7.92ZM94.06,118.26c-.46-2.02-1.09-4.01-1.31-6.06-.23-2.01-.19-4.09,0-6.11.22-2.29.72-4.56,1.11-6.83.45-2.65.89-5.3,1.39-7.94.11-.57.24-1.38.64-1.61,1.05-.62,2.25-.99,3.57-1.53,0,.63.05.96,0,1.26-1.03,4.89-2.02,9.79-2.5,14.77-.29,3.04-.64,6.07-.96,9.1-.06.6,0,1.24-.2,1.79-.37,1.05-.89,2.05-1.35,3.06-.12.03-.25.06-.37.1ZM91.13,119.52c.04-1.67-.15-3.35-.17-5.02-.05-4.16.3-8.29.95-12.4.35-2.22.64-4.45.96-6.67.13-.92.28-1.84.42-2.75-.04,0-.07-.01-.11-.02-.2.41-.4.82-.6,1.23-.04-.01-.09-.02-.13-.03.18-1.13.35-2.26.57-3.65.21.42.3.59.49.98.16-.51.22-.84.36-1.13.3-.64.49-1.56,1.01-1.84.84-.46,1.9-.5,2.87-.72-.18.21-.45.23-.61.38-.71.59-1.8,1.11-2.01,1.86-.83,2.97-1.48,6-2.02,9.04-.46,2.59-.76,5.22-.99,7.84-.32,3.65-.72,7.31,1.06,10.79.4.78.92,1.68.53,2.7-.55,1.44-1.08,2.9-1.6,4.35-.39,1.07-.77,2.14-1.15,3.21l-.19-.03c0-.3-.01-.61,0-.91.12-2.4.31-4.79.37-7.18ZM88.85,94.43c-.52,1.25-.19,2.76-1.01,3.91-.17-.05-.35-.11-.52-.16.39-1.29.79-2.57,1.18-3.86.11.04.23.07.35.11ZM87.5,99.09c.13.02.26.04.38.07-.22,1.14-.44,2.28-.66,3.42-.18-1.21-.04-2.36.28-3.49ZM86.22,102.78c.06,1.76.15,3.37-.99,4.77-.4-1.68.47-3.11.99-4.77ZM79.14,129.22c1.08-1.6,2.09-3.08,3.12-4.6,1.13,1.19,1.29,2.14.53,3.35-.39.61-.83,1.36-1.43,1.6-.54.22-1.32-.18-2.22-.35ZM77.57,136.35c.4-1.91.81-3.81,1.21-5.71.15.1.24.18.35.24.34.19,1.01.49.99.54-.64,1.69-1.35,3.35-2.05,5.02-.17-.03-.33-.06-.5-.09ZM73.61,152.43c1.94-5.04,3.87-10.08,5.81-15.12.09.03.18.07.28.1-.55,2.02-1.09,4.04-1.64,6.06-.75,2.73-1.5,5.46-2.25,8.18-.25.91-.72,1.01-1.59.35-.11.18-.21.37-.32.55-.1-.04-.19-.09-.29-.13ZM90.33,72.89c.35-.88.24-1.93.34-2.91-.13-.03-.26-.06-.39-.08l-1.98,5.98s.1-.02.15-.03c.64-.98,1.45-1.89,1.88-2.96ZM200.37,99.89c3.33,2.39,7.55,3.65,9.9,7.44-.38-.72-.6-1.63-1.18-2.11-1.59-1.34-3.31-2.53-5.03-3.72-.88-.61-1.85-1.09-2.79-1.61-.23-.13-.5-.18-.76-.26-.05.08-.1.17-.14.25ZM360.67,139.9c5.99,1.88,11.63,3.69,17.62,5.57.13-.15.21-.25.25-.38-5.98-1.89-11.96-3.78-17.94-5.66-.05.13-.03.29.07.47ZM375.5,142.94c4.12,1.38,8.26,2.71,12.39,4.07,3.08,1.01,5.52,1.93,8.58,3.01,2.52.89,5.18,1.99,7.7,2.88,3.07,1.07,6.11,2.05,9.2,3.06.36,0,.49-.44.38-.47-2.17-.56-8.43-2.85-9.89-3.37-2.22-.79-5.54-2.1-7.76-2.91-2.97-1.08-7.31-2.5-9.92-3.42-3.18-1.11-3.33-1.86-3.31-1.93.12-.44-34.18-11.35-37.25-12.52.04-.05-2.34-.97-2.73-1.07-3.2-.82-6.43-2.09-9.64-3.03-4.49-1.33-8.99-2.65-13.48-3.98-9.34-2.78-18.76-5.45-27.94-8.74-.3-.11-4.25-1.38-4.08-1.86-.04.12-.09.25-.13.37.27.13.55.26.82.39,2.98,1.51,6.21,2.43,9.24,3.77,3.53,1.57,7.22,2.6,10.83,3.92,3.63,1.33,7.41,2.26,11.12,3.38,3.59,1.08,7.18,2.15,10.75,3.29,4.08,1.3,8.14,2.7,12.21,4.03,2.84.93,5.72,1.76,8.55,2.74,3.33,1.15,6.61,2.45,9.94,3.6,2.71.93,5.47,1.71,8.19,2.61,2.09.69,4.15,1.49,6.24,2.19ZM423.3,158.02l-.15.52c2.96.85,5.92,1.7,8.88,2.55.05-.17.1-.34.14-.51-2.96-.85-5.92-1.71-8.88-2.56ZM185.21,107.36c5.5,1.83,11.05,3.51,16.59,5.2,1.26.38,2.58.54,4.07.85-.1-.44-.14-.64-.24-1.04.7-.54,1.57-1.2,2.41-1.88.59-.48.71-2.43.22-3.06-.06-.08-.19-.14-.19-.21.01-1.28-1.21-1.54-1.9-2.17-1.31-1.19-2.78-2.21-4.23-3.24-.75-.52-1.59-.92-2.41-1.34-2.17-1.1-4.32-2.28-6.55-3.25-5.23-2.28-10.54-4.4-15.76-6.7-2.26-1-4.65-1.36-7.02-1.87-.47-.1-1.01.08-1.5.13.05-.25.11-.56.19-.98-2.08.65-2.64,2.21-2.94,3.91-.08.49-.28,1,.25,1.6.31.35-.12,1.43-.33,2.15-.67,2.28.74,5.34,2.92,6.12,5.47,1.95,10.92,3.94,16.42,5.78ZM160.31,68.33c-.08.43-.23.71-.17.94.69,2.92,1.1,5.86,1.14,8.86,0,.7.04,1.41.21,2.09.11.45.44.88.77,1.22.25.26.65.38,1,.53,1.11.48,1.53,1.38,1.7,2.51.24,1.55.56,3.09.88,4.82.44-.32.77-.49,1.01-.75,1.38-1.5,3.09-1.68,4.84-.99,5.95,2.33,11.88,4.74,17.81,7.15,1.54.63,3.04,1.35,4.67,1.88-.47-.32-.9-.71-1.4-.93-4.9-2.1-9.81-4.21-14.74-6.25-2.15-.89-4.35-1.69-6.56-2.44-.69-.23-1.49-.19-2.24-.2-.53,0-.95-.06-.98-.69-.03-.5-.07-1.01.03-1.48.08-.4.3-.72.89-.46,2,.85,4.02,1.63,6.04,2.44,2.02.81,4.07,1.57,6.05,2.46,3.82,1.73,7.9,2.91,11.34,5.4,1.52,1.1,2.88,2.43,4.36,3.59.69.54,1.48.96,2.24,1.41.13.08.35.01.73.01-1.03-.93-1.95-1.7-2.81-2.53-2.3-2.22-4.84-4.11-7.73-5.46-5.92-2.77-11.89-5.45-17.84-8.16-.72-.32-1.44-.66-2.19-.87-1.22-.34-1.49-.17-2.08.98-.1.19-.21.37-.39.67-1-1.78-2.29-3.11-4.07-3.96-.37-.18-.66-.8-.72-1.26-.21-1.51-.23-3.05-.44-4.56-.25-1.81-.63-3.61-.97-5.4-.03-.14-.17-.26-.37-.55ZM164.77,97.04c-.52,2.88-.13,4.66.99,5.25-.16-.96-1.22-1.58-.68-2.86.28-.66-.11-1.6-.31-2.39ZM166.76,101.95l-.08.23c.79.36,1.56.77,2.37,1.08,2.18.86,4.37,1.71,6.58,2.5,1.66.59,3.34,1.11,5.02,1.63,2.93.92,5.88,1.8,8.81,2.73.9.29,1.88.53,2.62,1.07,1,.73,2.04.86,3.15.92.02-.08.04-.17.06-.25-.52-.06-1.03-.11-1.54-.17.02-.11.04-.21.07-.32,2.4.5,4.8.99,7.19,1.49.02-.07.03-.13.04-.2-1.61-.42-3.23-.79-4.83-1.27-2.17-.65-4.33-1.35-6.48-2.06-2.91-.95-5.8-1.95-8.7-2.9-4.4-1.44-8.81-2.87-13.22-4.29-.34-.11-.71-.15-1.06-.22ZM136.76,217.32c.17-.4.6-.69.91-1.03-1.22.95-2.5.45-3.73.37-.22-.01-.51-.07-.64.05-.12.1-.16.5-.06.6.18.18.47.29.73.34.49.09,1,.15,1.5.17.49.02,1,.19,1.29-.5ZM89.34,164.41c-.03,1.21-.06,2.42-.06,3.64v.53c.11,36.92,16.92,61.71,45.37,61.71h.01c4.85,0,9.88-1.43,14.82-3.72.25-.12.36-.42.24-.67-.07-.15-.21-.25-.37-.27.07-.29.1-.59.05-.82-.37-2.01-.92-3.99-1.38-5.99-.18-.77-.3-1.55-.51-2.31-.1-.37-.32-.71-.65-1,.4,3.43,1.24,6.77,1.56,10.17-.15.02-.3.04-.45.06-.54-2.97-1.13-5.93-1.6-8.91-.2-1.24-.78-2-1.82-2.68-1.07-.71-2.11-.88-3.36-.83-1.08.04-2.18-.31-3.51-.53.19.9.36,1.7.55,2.51.01.05.19.05.29.09,1.94.83,3.97.78,6.02.65.32-.02.63-.1,1.09-.18.07.2.22.63.37,1.06-.06.03-.12.05-.17.08-.12-.19-.23-.38-.32-.52-.58.24-1.2.47-1.81.75-1,.47-1.98.95-2.96,1.46-2.6,1.33-5.15,2.79-8.05,3.39-.41.08-.86.01-1.29.01.53-1.75,1.06-3.47,1.56-5.2.68-2.36,1.32-4.73,2-7.1.5-1.76,1.05-3.5,1.55-5.26.1-.33.18-.7.14-1.03-.16-1.26-.38-2.52-.59-3.93-1.46,4.66-2.89,9.22-4.32,13.78-.05,0-.09-.02-.14-.03v-1.22c-.27.27-.59.59-1.02,1.03.04-.39.06-.59.07-.7h-2.73c1.07.53,1.88.97,2.73,1.31.69.28.96.64.68,1.38-.26.71-.43,1.45-.68,2.16-.2.58-.51,1.07-1.24.87-1.66-.45-3.33-.59-5.01-.16-.49.13-.98.24-1.46.39-1.25.4-2.44.07-3.64-.23-.17-.04-.38.07-.62.12-.54-.31-1.22-.71-1.9-1.1-.39-.23-.8-.4-.1-.82.53-.32.99-.77,1.41-1.11.18.42.45,1.06.7,1.61.98-3.55,2-7.26,3.01-10.97.1.02.19.04.29.05-.12.56-.22,1.12-.38,1.67-.35,1.17-.73,2.33-1.09,3.5-.04.14-.03.42.04.45,1.05.44.8,1.64,1.54,2.42,1.68-.1,2.22-1.83,3.56-2.69-.48-.35-.86-.61-1.23-.89-.91-.69-.82-1.71-.57-2.56.96-3.2,2.08-6.35,3.06-9.54.65-2.14,1.03-4.37,1.75-6.48.73-2.12-.37-3.79-.96-5.61-.02-.07-.15-.11-.31-.21-1.76,6.57-3.5,13.09-5.25,19.62-.09-.02-.19-.05-.28-.07.28-1.14.54-2.28.83-3.41,1.06-4.02,2.05-8.07,3.24-12.05.83-2.8,1.9-5.53,2.97-8.25.36-.92,1.04-1.71,1.57-2.56-.09-.08-.19-.17-.28-.25-.66.5-1.34.96-1.96,1.5-.58.5-1.06,1.14-1.66,1.62-.87.71-1.83,1.31-2.71,2.01-.39.31-.68.75-1,1.14-.58.69-1.15,1.39-1.85,2.23,1.31.14,1.79-.72,2.52-1.3.17.3.32.57.54.97-.46-.09-.72-.13-1.12-.2,1.14,1.33,1.09,2.77.73,4.2-.89,3.48-1.84,6.95-2.78,10.42-1.06,3.93-2.12,7.85-3.17,11.77-.31,1.14-1.13,1.48-2.37,1-.4-.15-.82-.24-1.39-.4.28.5.48.84.67,1.19-.05.06-.1.12-.15.18-1.14-.96-2.29-1.92-3.43-2.89-.05.04-.09.08-.13.12l1.87,2.08c-.05.11-.11.22-.17.33-.51-.13-1.03-.21-1.51-.4-.9-.34-1.82-.67-2.65-1.15-.48-.28-.81-.84-1.19-1.3-.7-.84-1.62-1.05-2.87-.87.29-.54.49-.89.71-1.3-.66-.86-1.31.39-1.77.1-.18.42-.34.78-.51,1.16-.13,1,1.36,1.43,1.12,2.93-1.19-1.65-2.23-3.1-3.27-4.55-.42-.59-.02-1.03.37-1.3,1.37-.96,2.79-1.85,4.21-2.79.1-.56.22-1.18.33-1.8,2.98-.3,5.99-.11,8.65-1.81.02.09.04.19.06.28-.11.08-.21.16-.32.24.02.06.05.11.07.17.65-.23,1.3-.46,2.02-.72-.47-.69-.96-.69-1.59-.47-1.63.57-3.26,1.15-4.93,1.59-.88.23-1.85.34-2.75.22-1.46-.19-2.26.89-3.32,1.45-.8.43-1.57.93-2.35,1.4-.06-.07-.11-.14-.17-.21.81-.63,1.61-1.27,2.42-1.9.03-.16-.02-.49.13-.63,1.12-1.11,2.3-2.17,3.43-3.28,1.11-1.09,2.18-2.22,3.27-3.33,1.73-1.77,3.47-3.53,5.19-5.31,1.47-1.51,2.9-3.05,4.38-4.56.58-.59,1.27-1.08,1.84-1.68.73-.77,1.33-1.67,2.07-2.42,3.39-3.43,7.07-6.53,11.21-9.03,1.03-.62,2.17-1.07,3.22-1.58,1.25,1.04.91,2.39.91,3.64,0,1.05-.11,2.11-.18,3.16-.04.56-.13,1.13-.04,1.72,1.37-4.97,1.81-10.11,2.72-15.17-.5.8-1.01,1.59-1.5,2.39-.28.45-.42,1.09-.82,1.35-1.2.79-.14,1.74-.53,2.65-1.75-.32-3.19.84-4.76,1.73-1.49.84-3.04,1.58-4.55,2.38-.53.28-1.03.61-1.57.88-.16.08-.38.03-.57.02,2.65-2.14,5.31-4.26,7.95-6.41.91-.74,2.03-1.39,2.59-2.35.95-1.62,2.3-3.1,2.44-5.12.01-.22.04-.47-.04-.67-.31-.78-.22-1.32.66-1.66.19-.07.29-.65.24-.96-.1-.64-.34-1.26-.43-1.92.58,1.05,1.15,2.1,1.73,3.15.11-.03.23-.05.34-.08.2-1.22.42-2.45.6-3.67.24-1.59.4-3.19.7-4.77.19-.98.62-1.92.85-2.9.36-1.54.77-3.08.91-4.64.14-1.6.63-3.11.83-4.68.1-.78-.09-1.44-.57-2.21-1.07-1.69-1.96-3.54-2.65-5.42-.55-1.51-.71-3.17-1.04-4.76.11-.02.21-.04.32-.07.06.35.12.71.17,1.06.1.05.2.11.3.16.71-.86,1.45-1.7,2.11-2.6.38-.52.61-1.15.93-1.71.64-1.11,1.87-1.32,2.89-1.84.09-.04.23-.05.26-.12.29-.67.55-1.35.91-2.22-2.87.98-5.07,2.48-6.95,4.61-.69-1.67-.11-3.19.14-4.71.3-1.81.99-3.6,1-5.39.02-4.53,1.63-8.72,2.52-13.05.32-1.56.94-3.06,1.27-4.62.49-2.26.84-4.54,1.46-6.82.05.25.1.5.17.81,1.26-2.49,1.3-5.41,3.29-7.74-.46.07-.74.1-1.05.15-.03-.38-.06-.75-.1-1.36-.44,1.38-.81,2.56-1.19,3.73l-.19-.05c.56-2.36,1.12-4.71,1.67-7.07.12.02.24.04.37.06.05,1.04.09,2.08.16,3.12.09,1.36.1,1.36,1.4,1.11-.08-.37-.2-.73-.23-1.1-.15-1.81-.25-3.63-.42-5.44-.02-.25-.29-.47-.54-.79.6.02,1.19.06,1.79.1-.59.4-.73,1.09-.58,2.1.22,1.52.28,3.06.41,4.65.31.02,1,.25,1.23.02.28-.27.16-.94.24-1.44.29-1.74.58-3.49.89-5.32.08-.08.14-.18.16-.29.01-.1-.01-.2-.06-.28,0,0,0,0,0-.01,0,0,0,0-.01,0-.08-.14-.2-.24-.37-.26-.28-.04-.56-.07-.85-.09-1.45-.15-2.88-.22-4.3-.22-30.23.06-54.01,32.16-60.59,71.33-.07.34-.14.68-.21,1.02-.34,1.71-.54,3.45-.72,5.18-.29,2.85-.6,5.71-.76,8.57-.06,1.13-.08,2.26-.08,3.4ZM131.59,216.73c.88-2.81,1.75-5.62,2.63-8.43.08.02.16.05.24.07-.8,2.83-1.28,5.76-2.87,8.36ZM102.43,154.3c-1.72-.41-3.37-.8-5.21-1.24.47-.58.76-1.31,1.21-1.43,2.62-.68,5.3-1.17,7.93-1.81,2.69-.65,5.38-1.35,8.03-2.15.57-.17,1-.85,1.49-1.29.09-.16.3-.06.48.09.43.34.82.93,1.28.99,1.11.15,2.26.06,3.39.04.23,0,.54-.21.67-.11,2.29,1.66,4.6,3.31,6.81,5.07,1.33,1.06,1.44,3.06.27,4.17-2.04,1.93-4.16,3.76-6.25,5.63-.11-.05-.21-.1-.32-.15v-5.95c-1.16.43-1.41,1.13-1.18,2.34.11.57.02,1.17.02,1.76-.14,0-.28-.01-.42-.02.17-1.51.23-3.05.56-4.52.23-1.04.77-2.02,1.27-2.98.57-1.08.24-1.99-.4-2.85-.11-.14-.43-.12-.66-.17-.01.22-.06.44-.04.65.03.18.1.4.23.51.97.8.49,1.53,0,2.37-.79,1.36-1.34,2.79-1.23,4.45.12,1.93-.01,3.88.05,5.81.02.74-.24,1.2-.89,1.38-1.58.43-3.15.92-4.76,1.18-2.88.48-5.77.85-8.67,1.19-2.75.32-5.52.51-8.27.79-.55.06-1.08.28-1.84.48-.85-4.92-.31-9.93.59-14.83,2.06.17,3.88,1.01,5.85.59ZM101.56,172.83c-1.53-.18-3.06-.37-4.87-.58.36-.5.5-.88.78-1.04.57-.33,1.18-.68,1.82-.79,2.15-.39,4.31-.71,6.48-1,2.27-.3,4.55-.49,6.81-.82.55-.08.99-.24,1.38.27.35.46.83.84,1.09,1.34.12.23-.05.73-.24.98-.59.75-1.3,1.41-1.9,2.16-1.89,2.37-3.75,4.77-5.61,7.16-1.65,2.13-3.27,4.28-4.94,6.39-1.06,1.34-2.17,2.64-3.4,4.14-.64-2.97-1.26-5.69-1.8-8.43-.44-2.23-.88-4.47-1.11-6.73-.12-1.14-.45-2.44.28-3.33,1.83.2,3.51.38,5.2.56.02-.09.03-.19.04-.28ZM120.99,164.8c.1.06.19.12.29.19-.63.92-1.26,1.84-1.9,2.77-.16-1.43.98-2.03,1.61-2.95ZM121.7,157.44v3.99s-.09,0-.14,0v-3.99s.09,0,.14,0ZM139.33,147.79c-1.54,1.77-4.85,1.71-6.17-.2.39-.19.88-.29,1.13-.58.86-1.01,1.72-2.03,2.41-3.15.75-1.2,1.14-1.15,2.2-.71-1,1.35-.95,3.32.43,4.65ZM136.83,149.97c-1.19.2-2.39.24-3.59.25-1.86,0-3.54-.71-5.06-1.65-2.33-1.45-4.65-2.95-6.78-4.67-2.33-1.87-4.45-4.01-6.66-6.03.07-.08.14-.16.2-.25.17.07.36.09.49.2,1.18,1.03,2.38,2.04,3.5,3.12,2.39,2.3,4.77,4.62,7.75,6.14,1.81.92,3.71,1.74,5.65,2.32,1.43.43,3,.39,4.5.57ZM109.04,146.11c.32.24.64.48,1.08.82-.81.16-1.5.3-2.33.47.96-3.71,1.87-7.2,2.78-10.7.12,0,.24,0,.35,0,.69.72,1.38,1.44,2.08,2.15.72.74,1.41,1.51,2.19,2.18.88.75,1.29,1.41.9,2.72-.69,2.31-2.84,2.88-4.58,2.69-.81-.09-1.6-.35-2.4-.53-.02.07-.04.13-.07.19ZM100.82,133.62c-.25,1.25-.17,1.85-.44,3.25.61-1.12.8-1.41,1.31-2.36.02-.03-.02-.1-.03-.15-.03-.16.3-.27.29-.28.85-.86,1.69-1.7,2.7-2.72.94.68,2.08,1.29,2.94,2.17.72.74,1.11,1.8,1.73,2.85-.42.31-.89.62-1.33.97-.48.38-.4,1.42-1.45,1.18-.16-.04-.58.48-.65.79-.37,1.5-.7,3.01-.97,4.53-.14.8-.08,1.61.74,2.15.15.1.14.44.2.61-.56.13-.97.22-1.53.35.97.11,1.76.19,2.55.28,0,.16.02.31.03.47-3,.53-6.01,1.07-9.14,1.63-.02.04-.12.32-.22.6-.3-5.74,1.93-10.94,3.28-16.32ZM103.86,115.69c-.6-.27-1.2-.54-1.88-.84.09-.17.23-.42.41-.76.54.59,1,1.1,1.47,1.6ZM118.85,109.12c-.07-.06-.14-.11-.21-.17-.98,1.02-1.94,2.07-2.95,3.05-1.44,1.4-3.42,1.59-5.53.43,3.69-5.34,7.37-10.66,11.05-15.99.12.11.24.22.28.26.48-.38.9-.71,1.32-1.04.06.04.13.09.19.13-.46.88-.92,1.75-1.33,2.52-.37.06-.68.12-.95.17.3.38.69.66.8,1.03.56,1.9,1.11,3.81,1.52,5.74.15.71.41,1.62-.37,2.19-.33.24-.97.15-1.19.43-.38.46-.72,1.09-.75,1.67-.07,1.36-1.01,2.07-1.85,2.88-.37.36-.91.56-1.25.94-.26.28-.44.65-.61.63.44.84,1.57,1.44,3.28,1.72,1.19-1.72,2.38-3.45,3.68-5.33.16.35.25.48.28.63.65,2.86,1.32,5.71,1.93,8.58.27,1.28.16,2.54-.57,3.84-.5-.33-.93-.62-1.37-.91-1.91-1.3-3.8-2.63-5.73-3.88-.59-.39-.61-.74-.11-1.39-2.07-.59-4.01-1.12-5.93-1.71-1.42-.44-2.96-.41-4.28-1.38-1.03-.75-2.29-1.22-3.5-1.68-.84-.32-.88-.22-.79-1.12,1.71.85,3.44,1.71,5.24,2.61.22-.44.44-.9.66-1.36.03.02.07.04.1.05-.04.25-.08.51-.11.7,1.15.2,2.23.34,3.28.59,1.16.27,2.23.3,3-.8.7-1,1.39-2.01,2.08-3.01.23-.33.46-.67.69-1.01ZM140.4,134.1c.49-1.92,1.58-3.48,1.33-5.43-.14-1.11-.08-2.25-.08-3.37-.01-1.27-.1-2.56.03-3.81.16-1.56.53-3.1.81-4.65.02-.12,0-.26.04-.38.42-1.65.84-3.29,1.27-4.97.06.39.21.77.15,1.11-.38,2.11-.86,4.2-1.2,6.32-.32,1.99-.61,3.99-.7,6-.08,1.69.05,3.42.28,5.1.2,1.46.6,2.9,1.05,4.3.35,1.09.91,2.12,1.38,3.18-.02.03-.05.07-.07.1-.31-.46-.62-.92-.94-1.38-.05.03-.11.07-.17.1.18.34.37.69.55,1.03-.96.12-.97.12-1.49-.8-.14-.26-.12-.65-.31-.83-.65-.61-1.36-1.14-1.93-1.61ZM141.82,116.13c-.07,0-.14,0-.21-.01.06-1.31.12-2.61.19-3.96.25.08.52.16.81.25-.27,1.3-.53,2.51-.79,3.72ZM135.51,130.23c-.82,0-1.64-.15-2.62-.25.22.39.4.7.58,1.01-.04.05-.08.09-.12.14-3.09-2.04-6.17-4.07-9.4-6.2.46-.22.73-.35.75-.36,2.14,1.49,4.12,2.87,6.23,4.33-.44-1.09-.94-2.05-1.22-3.07-.95-3.5-1.87-7-2.71-10.53-1.25-5.24-2.46-10.5-3.63-15.76-.23-1.05-.21-2.16-.31-3.24,1.65.76,3.09,1.42,4.54,2.08.06-.11.11-.22.17-.33-1.42-.76-2.83-1.53-4.33-2.34,1.37-2.22,3.26-3.93,5.16-5.34-.31-.88-.57-1.62-.88-2.5-.04,0-.28-.07-.49-.12v-1.42c.32-.04.59-.07.98-.11-.06-.43-.12-.83-.17-1.21-.72.31-1.44.63-2.16.94-.06.23-.64.08-.75.25-.41.62-.71,1.14-1.6,1.32-.34.07-1.33.45-1.44,1.36-.03.24-.64.36-.89.62-1.37,1.38-2.73,2.77-4.06,4.19-.48.51-.83,1.14-1.32,1.64-.86.89-1.93,1.61-2.64,2.6-.54.75-1.19,1.36-1.82,2.04,0-.26.05-.5.18-.67.39-.49.81-.96,1.22-1.43,2.13-2.44,4.14-5.01,6.43-7.29,2.99-2.99,6.29-5.66,9.92-7.84,2.62-1.57,5.33-3.08,8.14-4.25,4.03-1.49,8.24-2.37,12.58-2.57-.32.26-.55.44-.76.62.1.02.19.04.22.05-.29.22-.84.41-.96.75-.26.74-.29,1.55-.44,2.34-.02.13-.1.3-.21.37-.77.47-.25,1.02-.17,1.57.13-.94.53-1.57,1.52-1.6.04-.54.08-1,.11-1.46.07,0,.14.02.22.03.06,1.2.11,2.4.16,3.48-2.15.45-4.22.88-6.29,1.31l.04.2c2.11-.29,4.22-.57,6.34-.86.03.32.06.42.04.51-1.06,4.45-2.13,8.89-3.19,13.33-1.01,4.2-1.99,8.41-3.04,12.6-.13.51-.56.95-.84,1.42-.12-.02-.23-.05-.35-.07.18.3.37.6.55.9-.37,0-.72-.12-.85-.36-.37-.65-.75-1.33-.94-2.05-1.72-6.62-3.42-13.25-5.09-19.88-.22-.87-.12-1.73.63-2.39.22-.19.4-.43.6-.65-.86.05-1.38.42-1.63,1.2-.23.72-.61,1.39-.88,1.99-.47-.37-.84-.67-1.18-.93.33.92.64,1.75.92,2.6.2.6.37,1.2.52,1.81.24.95.44,1.9.66,2.85-.21-.25-.42-.51-.7-.85-1.89.31-3.42,1.58-5.01,2.81.99-.17,1.98-.3,2.96-.52.73-.16,1.42-.55,2.15-.63.66-.07.6-.41.58-.83.22.71.46,1.41.66,2.12,1.53,5.56,3.09,11.12,4.53,16.7.36,1.4.94,2.81.62,4.33-.19.93-.51,1.85-.56,2.78-.13,2.7-.15,5.4-.22,8.09,0,.34-.03.67-.05,1.22-1.66-1.19-3.34-.61-4.98-.61ZM133.28,131.91c-3.25-1.48-6.36-3.19-9.05-5.54,3.01,1.85,6.03,3.69,9.05,5.54ZM139.76,142.79c-.39-.1-.77-.25-1.16-.29-.57-.06-1.14-.49-1.72.2-.37.44-1,.79-1.56.89-2.06.36-4.16.41-6.02-.68-2.25-1.32-4.49-2.7-6.57-4.27-2.28-1.71-4.38-3.65-6.54-5.53-1.08-.94-2.11-1.93-3.12-2.94-.31-.3-.42-.83-.76-1.06-2.11-1.38-4.65-1.75-6.88-2.86-.58-.29-1.29-.42-1.74-.84-.97-.91-2.05-1.55-3.3-1.98-1.08-.37-1.44-1.12-1.25-2.03,1.57.88,3.2,1.8,4.94,2.77.36-1.07.68-1.99.99-2.92.07.02.14.04.2.06-.14.53-.29,1.06-.43,1.6,2.74.54,5.03-.26,5.72-2.08-1.44-.17-2.82-.33-4.21-.49-.13-.6,1.05-1.2.31-2.01-.55-.6-1.2-1.11-1.79-1.67-.28-.27-.55-.56-.82-.85.95.62,1.9,1.24,2.85,1.85l.19-.26c-.71-.6-1.41-1.2-2.12-1.79.05-.07.1-.13.15-.2l9.53,6.94c-.6.08-1.2-.17-1.66-.02-.54.18-.96.72-1.51,1.16.18.26.39.57.63.92-.29.16-.53.3-.86.48,1.02.58,1.94,1.11,2.95,1.69.57-1.16,1.1-2.25,1.68-3.43,3.8,2.71,7.54,5.36,11.18,7.96-.4.98-.74,1.84-1.09,2.71.12.05.23.11.35.16.4-.79.79-1.58,1.21-2.41.24.13.48.27.69.38-.38.97-.75,1.88-1.12,2.81.14.06.28.11.41.17.45-.9.89-1.79,1.37-2.77,3.87,2.73,8.29,4.71,10.53,9.26-.62.03-1.19.05-1.76.08.01.12.02.24.04.36.46-.06.95-.25,1.37-.15.34.09.6.53.9.81-.07.08-.14.15-.21.23ZM125.91,178.33c.45-.49.93-.94,1.4-1.41.47,1.54-1.21,1.93-1.62,2.99-.53-.6-.21-1.11.21-1.58ZM101,205.25c.68-2.04,2.58-2.85,3.74-4.31,1.18-1.48,2.7-2.69,4.07-4.01.07.06.13.13.2.19-2.64,2.68-5.27,5.35-8.01,8.13ZM97.15,203.28c.3-.02.64.04.69-.05.37-.71.77-1.43.97-2.2.18-.69.28-1.29,1.11-1.36.2-.35.51-.58.77-.86.26-.28.68-.61.67-.91-.02-1.21-.17-2.42-.28-3.72-1.1.71-2.22,1.42-3.34,2.14-.07-.09-.14-.19-.21-.28.68-.81,1.39-1.6,2.04-2.42,2.31-2.94,4.58-5.92,6.92-8.83,2.11-2.63,4.28-5.2,6.43-7.8,2.71-3.29,5.35-6.65,8.16-9.86,2.74-3.14,6.07-5.55,9.98-7.08.7-.27,1.49-.8,2.31-.14.07.06.29-.08.44-.11,1.49-.27,2.98-.47,4.45.14.5.21,1.55,1.77,1.48,2.29-.01.11-.12.31-.18.3-1.1-.03-1.55,1.27-2.72,1.22-.98-.04-1.98.26-2.85.39-.22-.33-.38-.57-.55-.79-.02-.02-.2.03-.23.09-.4.65-.76,1.26-.32,2.11.64,1.25,1.38,2.29,3.05,2.57-.49-.96-.94-1.82-1.42-2.76,1.06-.35,2.06-.68,3.05-1,.11.74.24,1.36.29,1.99.02.26-.03.62-.19.78-1.99,1.91-3.95,3.85-6.04,5.65-2.18,1.87-4.49,3.58-6.72,5.36-.29-.62-.64-1.38-1-2.14-.07.03-.14.05-.2.08.23.96.45,1.91.68,2.87-.06,0-.12.02-.17.03-.28-.73-.57-1.45-.85-2.18l-.27.08c.2.95.4,1.9.6,2.85-.09.01-.17.03-.26.04-.25-.76-.51-1.51-.76-2.27-.09.03-.19.06-.28.08.06.35.02.76.19,1.05.79,1.36.09,2.21-.85,3.15-2.87,2.85-5.65,5.79-8.52,8.65-.75.74-1.26,1.81-2.5,1.97-.17.02-.37.28-.46.48-.15.32-.12.76-.34,1-.99,1.1-2.03,2.15-3.06,3.21-.76.78-1.44,1.68-2.32,2.29-.74.51-1.58.73-2.26,1.5-1.28,1.47-2.87,2.67-4.36,4.01-.2-.42-.47-1.02-.75-1.61ZM94.75,195c1.17-1.14,2.37-2.25,3.56-3.36.06.07.13.14.19.21-1.2,1.26-2.4,2.53-3.77,3.97,0-.39-.09-.71.02-.82ZM207.58,52.1c-.03-1.3.76-2.39.94-3.63-.96,1.07-1.95,2.12-.94,3.63ZM101.68,194.22c1.61-.15,2.97-.28,4.3-.4-.33-.43-3.19-.26-4.3.4ZM207.03,49.16c.26-.22.42-.54.67-.87-1.16,0-2.66,1.51-2.72,4.29.82-.05,1.24-.37,1.12-1.18-.14-.94.23-1.64.93-2.24ZM256.1,88.32s0,0,0,0c0,0,0,0,.02,0,0,0,0,0-.01,0ZM256.43,88.3c-.1.01-.21.02-.31.03,3.75,1.15,7.5,2.3,11.26,3.46,2.22.68,4.44,1.39,6.66,2.05.16.05.35.01.54-.03-.2-.07-.41-.15-.62-.22-.72-.25-1.44-.63-2.18-.66-1.32-.07-2.42-.78-3.66-1.08-1.21-.29-2.38-.76-3.58-1.12-.87-.26-1.78-.41-2.65-.68-1.24-.39-2.45-.91-3.7-1.28-.59-.17-1.18-.32-1.78-.46ZM292.72,99.18s0,0,0,0c0,0-.02,0-.03,0,0,0,.01,0,.02.01ZM301.1,80.35c-1.24.88-1.15,1.05-.85,2.7.19,1.05.04,2.17.04,3.29,1.72-.76,1.88-1.23,1.34-3.4-.22-.88-.36-1.77-.53-2.59ZM289.02,98.21c-1.01-.3-2.04-.55-3.05-.84,1.42.45,2.83.9,4.25,1.33,4.77,1.43,9.54,2.85,14.31,4.26,2.9.86,5.81,1.69,8.72,2.53,2.34.67,4.67,1.37,7.01,2.04,1.17.34,2.34.67,3.51.99.55.15,1.45.29,2.31.54.92.26,1.9.43,3.08.7,2.42.55,3.88.98,6.31,1.53.34.08.68.13,1.02.18.05,0,.1-.04.27-.13-.99-.28-1.89-.55-2.79-.79-2.62-.7-12.12-3.23-14.26-3.8.22.07.44.14.66.22.58.2,1.11.56,1.66.86-.28-.05-.57-.09-.84-.17-2.53-.76-5.05-1.54-7.59-2.28-2.04-.6-4.11-1.12-6.15-1.72-2.5-.73-5-1.51-7.5-2.25-1.79-.52-3.6-.99-5.39-1.52-1.85-.54-3.69-1.13-5.54-1.68ZM108.17,209.33c.1-.07.2-.14.31-.22-.74-1.02-1.47-2.04-2.21-3.07-.07.05-.14.11-.21.16.71,1.04,1.41,2.08,2.12,3.12ZM209.71,58.91c1.7,1.02,3.48,1.91,5.24,2.87.05-.09.16-.29.16-.28.46.65.94,1.31,1.45,2.03.81-1.35.39-2.27-.58-3.05,0,0,0,0,0,0-.21.18-.41.37-.56.5-2.15-1.86-4.89-2.58-7.47-3.67.58.54,1.1,1.2,1.77,1.6ZM222.91,66.49c-.06,1.04-.15,1.93-.14,2.82,0,.19.39.37.69.51-.21-1.09,1.47-2.4-.55-3.33ZM207.6,59.24c-.01,2.17,5.04,8.31,6.45,8.1.78,1.43,2.02,2.32,3.35,3.12.88.7,1.7,1.52,2.68,2.06.44.24.72.16,1.32.08.24-.03.56-.12,1.23-.23-.92.42-1.36.5-2.01.64,2.21,1.09,3.9,2.84,6.44,3.01,1.84.13,3.65.53,5.48.79.73.1,1.47.14,2.34.06-4.09-2.05-8.17-4.09-12.25-6.13-.41.1-.85.21-1.53.37.17-.41.25-.52.25-.63.01-.36.03-.73-.04-1.08-.01-.07-.56-.15-.59-.09-.14.29-.12.65-.28.92-.25.42-.59.78-.89,1.16-.14-.07-.27-.14-.41-.21.17-.69.43-1.38.49-2.08.04-.59.79-1.37-.35-1.86-.17.67-.32,1.28-.45,1.78-.29-.13-.56-.25-.83-.37,0-.44-.11-.92.02-1.32.2-.57.05-.93-.48-.98-.15-.01-.38.57-.53.9-.06.13-.01.32-.01.55h-.96c.06-.62.18-1.2.16-1.78,0-.31-.17-.82-.37-.88-1.66-.54-2.57-2.09-3.99-2.94-1.13-.67-2.18-1.48-3.27-2.23-.31-.22-.61-.45-.99-.72ZM103.24,173.1c-.24.02-.46.18-.7.28.01.1.03.2.04.3,1.41.19,2.83.37,4.25.56-.04-.18-.09-.6-.22-1-.04-.14-.28-.3-.42-.29-.98.03-1.97.08-2.95.16ZM217.13,60.79c.06-.05.12-.1.19-.15-.73-.92-1.47-1.83-2.19-2.75-.06-.07,0-.23-.01-.34-.18-1.35-2.61-3.03-3.93-2.75-.36.08-.73.09-1.09.07-.26-.02-.51-.15-.8-.24,0,.01-.02.04-.03.05-.24.34-.71.71-.67,1,.11.76.67,1.18,1.43,1.51,1.25.53,2.4,1.31,3.62,1.94.57.3,1.21.48,2,.78.01.02.17.29.33.57.39.11.78.21,1.17.33ZM222.19,66.32c.18-.53.08-.79-.36-1.11-.63-.45-1.2-1-1.79-1.5-.81,1.33-.79,1.91.07,2.67.07-.24.13-.48.19-.72.05-.22.1-.44.14-.64.38.31.78.63,1.19.97-.45.85-.44,2.13.05,2.55.16-.74.27-1.5.51-2.22ZM131.25,102.33c.68-.54,1.41-1.11,2.13-1.69,0-.1-.02-.19-.03-.29-1.07-.19-2.14-.38-3.27-.58.44.96.78,1.73,1.16,2.56ZM213.78,47.26c.3.55.6,1.08.93,1.69h-1.01c-.19.59.03.94.6,1.21,1.34.63,2.64,1.31,4.05,2.02.03-.54.05-.98.08-1.42.05-.01.1-.02.16-.03.07.32.27.67.19.94-.33,1.07.24,1.26,1.08,1.24-.09-.62-.44-1.37-.21-1.83.61-1.22-.3-1.55-.94-2.09-.12-.1-.26-.2-.55-.42.17.37.26.58.37.82h-.63c.1-1.3-.87-1.65-1.82-2.04-.05.29-.11.59-.16.88-.04-1.42-1.03-2.4-2.11-1.87.07-.24.21-.45.15-.57-.14-.32-.36-.61-.55-.91-.19.21-.48.39-.55.63-.39,1.41-.37,1.42.53,2.26.13-.17.26-.34.38-.5ZM213.57,61.72c-1.51-.94-3.07-1.79-4.66-2.62,1.51,1.99,3.99,2.72,5.78,4.56.42-1.33-.53-1.56-1.12-1.93ZM127.97,84.54c.02.16.05.32.07.48.03-.02.07-.03.1-.04-.06-.15-.11-.29-.17-.44Z"/>
    <path class="cls-2" d="M0,244.52h694.14v-2.31H0v2.31Z"/>
  </g>
</svg>