<?xml version="1.0" encoding="UTF-8"?>
<svg id="Layer_2" data-name="Layer 2" xmlns="http://www.w3.org/2000/svg" viewBox="0 0 681.21 156.46">
  <defs>
    <style>
      .cls-1 {
        font-family: SofachromeLt-Regular, Sofachrome;
        font-size: 10px;
      }

      .cls-1, .cls-2 {
        fill: #fff;
      }

      .cls-3 {
        font-family: SofachromeRg-Regular, Sofachrome;
        font-size: 36px;
      }

      .cls-4 {
        letter-spacing: -.02em;
      }

      .cls-5 {
        letter-spacing: -.05em;
      }

      .cls-6 {
        letter-spacing: -.05em;
      }

      .cls-7 {
        fill: #0583f2;
      }
    </style>
  </defs>
  <g id="_1" data-name="1">
    <g>
      <path class="cls-7" d="M177.62,35.21c.29,5.27-1.25,9.61-2.17,11.19-3.42,5.87-7.9,10.46-16.68,13.95-9.91,3.94-22.62.6-26.59-.48-3.97-1.08-7.7-1.81-10.59-1.81s-21.48.66-24.91.84c-3.43.18-6.38.42-6.02-.12.36-.54,2.48-4.8,5.55-6.6,3.07-1.8,40.07-10.29,49.45-13-17.69,3.07-49.82,11.01-50.9,11.91-1.28,1.07-7.18,8.2-6.98,9.46.14.88,22.65-.21,27.88-.39,5.23-.18,9.42.13,12.85,1.22,3.43,1.08,13.52,4.62,21.1,4.26,7.58-.36,16.19-4.15,20.7-7.94,4.51-3.79,10.87-12.37,7.3-22.49ZM180.39,144.46c-.84-.72-5.47-1.04-9.44-1.04l-11.2-.46-39.9-1.59c-2.03-.28-14.29-10.58-14.29-10.58,0,0-22.15,3.03-24.92,3.16-3.96.19-23.2-1.88-42.31-5.04-9.32-1.54-28.22-6.66-29.51-7.3-1.83-.91-1.83-1.87-1.59-2.83.03-.77-2.08,1.22-3.65,2.92-1.79,1.93-4.04,4.53-3.5,5.07.42.43,2.21-1.73,3.64-2.57.54,2.03,18.25,6.94,29.99,9.19,12.6,2.41,25.6,4.58,39.41,5.98,2.83,2.12,9.57,7.86,10.65,8.1,1.08.24,47.41,2.17,54.75,2.05,7.34-.12,38.02-2.77,40.19-3.01,2.17-.24,2.53-1.32,1.68-2.04ZM104.98,121.51c.93.07,41.8.34,46.79.3,5-.04,7.83-.41,7.76-1.42-.08-1.17-1.71-1.87-3.83-1.92-2.59-.05-32.15-.04-32.15-.04-3.51.18-15.16,1.54-16.91,1.63-1.76.09-2.58,1.38-1.65,1.45ZM11.98,112.68c-3.27-2.22-3-7.44-3.55-13.87-.22-2.61-2.07-7.61-4.03-7.87-.34,6.83-.23,20.99,2.32,24.2,2.82,3.54,22.09,7.72,30.08,9.03,11.93,1.95,25.2,3.28,28.6,3.21,3.95-.07,6.01-3.8,7.44-6.14-5.1,2.94-15.19,1.57-29.24-.56-15.09-2.29-28.36-5.78-31.63-8ZM238.66,30.23c-3.63-3.01-14.96-9.08-29.1-9.21-14.14-.13-26.31,2.53-44.18,11.22,3.58-.2,9,.48,11.4,1.14,10.4-5.92,24.44-10.35,35.75-10.35s19.8,3.41,26.13,7.21ZM10.01,67.4c3.07,1.79,10.23,2.77,16.04,3.09,9.44.5,19.55.86,54.7.03,16.65-.4,32.52-2.01,39.29-3.38-28.08.96-87.45.54-99.54-3.89-2.42-.89-3.31-2.59-.16-4.9,5.4-3.96,12.44-6.85,20.73-9.7,9.65-3.32,34.77-10.25,59.42-13.99,7.41-1.21,10.92-1.65,15.15-2.19-3.41-.16-9.38.35-16.12,1.22-17.57,2.27-37.94,5.93-60.24,13.12-8.74,2.82-18.74,6.54-26.44,11.83-2.89,1.98-6.66,6.54-2.84,8.76ZM160.22,98.38c0-1.81-1.39-3.54-4.63-3.54-3.79,0-40.58.66-47.09,1-4.79.26-9.63.62-12.5,5.25-2.87,4.63-9.89,16.92-15,30,3.51-4.15,3.83-4.47,4.79-6.38.96-1.91,10.37-20.75,16.76-22.98,6.38-2.23,16.28-.8,22.5-1.28,1.76-1.28,3.83-2.79,7.18-2.95,3.35-.16,21.52-.49,23.91-.48,3.22,0,4.02,4.86,4.02,4.86,0-2.02.07-2.79.07-3.52ZM144.07,50.06c-.17,4.74,2.78,8.14,6.76,8.82.19.03.39,0,.58-.01-3.7-.48-6.49-4.27-6.33-8.78.16-4.5,3.2-8.09,6.92-8.32-.19-.02-.38-.06-.58-.05-3.94.26-7.19,3.59-7.36,8.33ZM157.14,45.82c-.8-1.14-1.9-1.86-3.13-1.91-2.59-.09-4.8,2.83-4.93,6.53-.13,3.7,1.87,6.76,4.46,6.85,1.35.05,2.59-.72,3.49-1.99-1.79-.28-3.13-2.38-3.05-4.87.08-2.39,1.45-4.32,3.16-4.62ZM115.04,52.4c-.2,2.21.56,4.09,1.69,4.19,1.13.1,2.21-1.61,2.4-3.82.2-2.21-.56-4.09-1.69-4.19-1.13-.1-2.2,1.61-2.4,3.82ZM118.64,52.5c-.11,1.24-.64,2.2-1.18,2.15-.54-.05-.89-1.09-.78-2.33.11-1.24.64-2.2,1.18-2.15.54.05.89,1.09.78,2.33ZM253.3,106.54c1.23-20.97-10.66-38.51-29.59-39.62-1.35-.08-2.71-.07-4.05.02.42,0,.84.02,1.25.05,18.29,1.07,29.75,18.59,28.52,39.56-1.14,19.48-16.1,34.81-32.18,35.68,18.08.92,34.85-15.14,36.06-35.68ZM231.57,53.67c-6.04-1.07-13.83-1.02-16.16,6.26-1.72,5.38,6.07,3.7,11.43,3.97.3,0,.61.02.91.04,18.94,1.11,30.74,20.09,29.41,42.85-1.33,22.76-18.48,39.96-37.41,38.85-8.76-.51-16.37-4.86-21.89-11.64-.21,4.3-.32,9.47-.17,17.49,5.47,2.92,11.55,4.66,18,4.93,25.59,1.07,47.31-21.45,48.52-50.29,1.06-25.5-11.93-47.07-32.64-52.46ZM244.8,35.82c-5.96-3.36-10.41-4.18-5.28-1.06,4.6,2.8,14.18,10.1,16.95,22.61.48.24.96.12,1.08-.96.12-1.08-.22-5.88-.29-7.79-.09-2.38,1.85-3.18,4.74-3.27,2.55-.08,39.68.96,47.26,1.32,7.57.36,8.12-1.47,8.24-3.41.23-3.69-2.68-8.8-5.83-12.46,1.32,2.16,2.47,4.84,2.77,7.7.17,1.6-.36,5.17-3.73,5.05-3.37-.12-54.24-2.84-57.23-3.61-3.71-.95-6.04-2.63-8.67-4.11ZM146.88,30.26c12.86-7.77,37.93-19.16,61.05-23.83,17.18-3.47,31.6-4.35,52.18-3.8,1.17-.81,2.3-2.08,4.24-2.44-3-.35-34.87-.71-54.98,3.83-31.57,7.13-52.78,17.56-67.34,26.06,1.39-.07,4.84.18,4.84.18ZM297.9,18.99c4.2,5.06,7,15.52,7.4,19.19.26.72,2.63.72,3.49.25-2.49-11.42-7.31-16.41-10.89-19.44ZM280.22,31.68c3.04-.25,5.7-.3,6.92-1.72.78-.91.57-3.48-1.96-3.48-2.53,0-9.44.13-11.08.13-1.39-1.14-3.86-4.56-3.86-4.56l-2.22,8.02c0,.82,1.96,1.18,3.3,1.35,1.62.2,5.87.52,8.91.27ZM265.82,9.7c-1.04,3.81-6.08,13.29-7.75,16.05-9.23-.61-22.29-1.25-25.44-1.25,2.85.95,5.89,2.66,7.79,3.8,5.89.09,22.52,1.33,24.99,1.71.65-1.57,5.84-18.43,6.74-21.34.71-2.3,1.07-3.03,2.45-3.77,1.61-.87,4.52-.83,10.71,2.56,7.13,3.91,13.1,8.25,20.12,15.36-4.68-6.97-14.61-14.55-20.57-17.8-8.12-4.42-13.25-4.59-15.29-4.59s-4.03,1.02-5.02,2.29c2.26.27,2.38,3.01,1.29,6.98ZM67.57,60.85c2.87.11,14.61-.22,17.82-.22,3.04-5.06,6.86-9.09,8.34-10.1,1.39-.95,34.53-8.6,34.53-8.6l.46-.69c-6.27,1.18-46.69,10.48-53.8,13.54-3.3,1.42-6.88,2.98-7.34,6.08ZM269.16,96.64c2.54-9.88,5.24-26.82,6.55-35.09,1.55-9.76,6.56-5.93,10.78-7.33,2.96-.98-5.65-3.36-9.85-3.61-2.47-.15-2.32,1.23-2.97,11.63-.78,12.42-5.3,35.79-5.96,38.67l1.45-4.27ZM330.89,34.39l-.03,3.55s.09.6.9.6,2.51-.3,3.27-2.59c.45-1.38,1.21-3.73-.24-4.72-1.45-.99-3.97-1.38-3.88-.12v1.5s-15.72,1.16-15.72,1.16c.38.53.75,1.08,1.22,1.78l14.48-1.16ZM219.83,104.64c-.53,2.36.48,4.58,2.24,4.98,1.77.4,3.63-1.19,4.15-3.55.53-2.36-.48-4.59-2.24-4.98-1.77-.39-3.63,1.19-4.16,3.55ZM227.46,103.32c.29.82,1.57,1.12,2.86.66,1.29-.46,2.11-1.49,1.82-2.31-.29-.82-1.57-1.12-2.87-.66-1.29.46-2.1,1.49-1.81,2.31ZM224.94,97.55c.32-1.33-.1-2.58-.95-2.78-.85-.2-1.79.71-2.12,2.04-.32,1.33.1,2.58.95,2.78.85.2,1.79-.71,2.11-2.04ZM217.59,111.79c-.34,1.27,0,2.45.76,2.65.76.2,1.64-.66,1.98-1.92.34-1.26,0-2.45-.76-2.66-.76-.2-1.64.66-1.98,1.93ZM225.75,109.35c-.71.32-.86,1.55-.32,2.74.54,1.19,1.55,1.9,2.27,1.58.71-.32.86-1.55.32-2.74-.54-1.19-1.55-1.9-2.27-1.58ZM215.04,101.38c-.52.58-.26,1.67.58,2.42.84.75,1.95.89,2.47.31.52-.59.26-1.67-.58-2.42-.84-.75-1.95-.89-2.47-.31ZM226.03,120.11l.96,17.23c2.25-.96,4.34-2.23,6.25-3.77l-3.79-15.16c-1.07.75-2.22,1.33-3.42,1.7ZM220.26,92.35c.93-.41,1.9-.7,2.89-.84l2.66-20.36c-.89-.25-1.79-.46-2.72-.62-1.44-.24-2.85-.33-4.23-.27l1.4,22.09ZM235.39,76.44l-6.2,16.05c.87.44,1.67.99,2.4,1.65l8.46-12.43c-1.36-1.97-2.92-3.74-4.66-5.27ZM233.92,113.29l8.77,7.64c1.04-2.35,1.87-4.85,2.48-7.46l-9.72-4.1c-.36,1.41-.88,2.72-1.53,3.92ZM245.02,92.72l-10.31,5.82c.39.88.69,1.82.91,2.8l10.58-1.7c-.2-2.39-.6-4.7-1.18-6.92ZM202.86,133.98c1.86,1.72,3.93,3.08,6.15,4.01l10.12-18.16c-1.17-.47-2.24-1.16-3.18-2.01l-13.09,16.15ZM211.54,106.91l-14.53.08c1.2-8.12,2.64-14.66,3.95-19.72l12.86,11.08c.51-.89,1.09-1.71,1.73-2.45l-11.72-18.56c2.99-9.06,11.07-27.5,26.04-30.22,15.22-2.77,22.98,14.68,26.38,25.03.15.45.4.61.79.82.58.3,1.96.27,1.8-.94-6.86-35.01-27.71-33.93-33.12-32.4-4.87,1.38-17.98,7.7-26.8,33.59-7.88,23.12-9.72,46.94-10.11,72.08,1.47-.1,4.34-.52,5.62-1.29.02-10.75.6-20.15,1.47-28.28l16.02-5.17c-.26-1.17-.39-2.4-.38-3.66ZM14.83,88.95c15.44,1.93,51.93,6.21,72.04,6.44,1.97-2.92,4.72-7.41,5.62-9.66.9-2.25,1.35-3.37-.23-5.84-1.57-2.47-3.37-6.64-7-6.53-4.54.14-9.35.21-14.26.24-1.01,2.21-2.68,5.06-4.56,7.2-2.37,2.69-7.53,2.51-17.42,2.52-13.7.02-37.64-2.53-41.6-4.67-1.93-1.05-1.8-3.09-1.5-4.78-.05.02-.09.05-.13.07-1.21.95-2.22,2.47-2.34,6.08-.18,5.69,5.35,8.18,11.37,8.93ZM330.44,35.24l-13.68.99.26.37,13.4-.64.02-.72ZM266.57,33.36c4.98.82,28.46,4.26,30.73,4.57,2.44.34,5.38.84,6.3.09-1.6-.17-12.1-2.1-18.49-3.2-6.43-1.1-15.57-2.49-18.04-3.04l-.5,1.58ZM152.08,112.63c4.75-.04,7.44-.41,7.37-1.42-.08-1.17-1.62-1.88-3.64-1.92-2.46-.06-30.53-.06-30.53-.06-3.34.18-14.4,1.54-16.07,1.63-1.67.09-2.45,1.38-1.57,1.45.88.07,39.7.36,44.45.32Z"/>
      <g>
        <text class="cls-1" transform="translate(383.85 124.91)"><tspan x="0" y="0">d</tspan><tspan class="cls-5" x="11.61" y="0">r</tspan><tspan x="22.84" y="0">eam car co</tspan><tspan class="cls-4" x="123.04" y="0">l</tspan><tspan class="cls-6" x="132.38" y="0">l</tspan><tspan x="141.42" y="0">ection</tspan></text>
        <rect class="cls-7" x="594.81" y="120.81" width="82.96" height="2"/>
        <rect class="cls-7" x="290.09" y="120.81" width="82.96" height="2"/>
        <text class="cls-3" transform="translate(290.09 94.95)"><tspan class="cls-2" x="0" y="0">COOL</tspan><tspan x="164.52" y="0"> </tspan><tspan class="cls-7" x="177.23" y="0">WHIPS</tspan></text>
      </g>
    </g>
  </g>
</svg>