<?xml version="1.0" encoding="UTF-8"?>
<svg id="Layer_2" data-name="Layer 2" xmlns="http://www.w3.org/2000/svg" viewBox="0 0 248.98 248.98">
  <defs>
    <style>
      .cls-1 {
        font-family: SofachromeRg-Regular, Sofachrome;
        font-size: 36px;
      }

      .cls-2 {
        fill: #fff;
      }

      .cls-3 {
        fill: #011126;
      }

      .cls-4 {
        fill: #0583f2;
      }
    </style>
  </defs>
  <g id="_1" data-name="1">
    <g>
      <rect class="cls-3" width="248.98" height="248.98" rx="28.52" ry="28.52"/>
      <g>
        <path class="cls-4" d="M79.59,107.23c.11,2.09-.5,3.82-.86,4.45-1.36,2.33-3.14,4.16-6.63,5.55-3.94,1.57-9,.24-10.57-.19-1.58-.43-3.06-.72-4.21-.72s-8.54.26-9.91.34c-1.36.07-2.54.17-2.39-.05.14-.22.99-1.91,2.21-2.63,1.22-.72,15.93-4.09,19.67-5.17-7.03,1.22-19.81,4.38-20.24,4.74-.51.42-2.85,3.26-2.77,3.76.06.35,9.01-.08,11.09-.15,2.08-.07,3.74.05,5.11.48,1.36.43,5.38,1.84,8.39,1.69,3.02-.14,6.44-1.65,8.23-3.16,1.79-1.51,4.32-4.92,2.9-8.94ZM80.69,150.68c-.34-.29-2.17-.41-3.75-.41l-4.45-.18-15.87-.63c-.81-.11-5.68-4.21-5.68-4.21,0,0-8.81,1.2-9.91,1.26-1.57.08-9.23-.75-16.82-2-3.71-.61-11.22-2.65-11.73-2.9-.73-.36-.73-.75-.63-1.13.01-.31-.83.49-1.45,1.16-.71.77-1.6,1.8-1.39,2.02.17.17.88-.69,1.45-1.02.21.81,7.26,2.76,11.92,3.65,5.01.96,10.18,1.82,15.67,2.38,1.13.84,3.8,3.13,4.23,3.22.43.1,18.85.86,21.77.81,2.92-.05,15.12-1.1,15.98-1.2.86-.1,1-.53.67-.81ZM50.7,141.55c.37.03,16.62.14,18.61.12,1.99-.02,3.11-.16,3.08-.57-.03-.46-.68-.75-1.52-.76-1.03-.02-12.78-.02-12.78-.02-1.4.07-6.03.61-6.73.65-.7.04-1.03.55-.66.58ZM13.72,138.04c-1.3-.88-1.19-2.96-1.41-5.52-.09-1.04-.82-3.03-1.6-3.13-.13,2.72-.09,8.35.92,9.62,1.12,1.41,8.78,3.07,11.96,3.59,4.75.78,10.02,1.3,11.37,1.28,1.57-.03,2.39-1.51,2.96-2.44-2.03,1.17-6.04.63-11.63-.22-6-.91-11.28-2.3-12.58-3.18ZM103.86,105.25c-1.45-1.2-5.95-3.61-11.57-3.66-5.62-.05-10.46,1.01-17.57,4.46,1.42-.08,3.58.19,4.53.45,4.14-2.35,9.72-4.11,14.22-4.11s7.87,1.35,10.39,2.87ZM12.94,120.03c1.22.71,4.07,1.1,6.38,1.23,3.76.2,7.78.34,21.75.01,6.62-.16,12.93-.8,15.63-1.34-11.16.38-34.77.21-39.58-1.55-.96-.35-1.32-1.03-.06-1.95,2.15-1.58,4.95-2.72,8.24-3.86,3.84-1.32,13.83-4.08,23.63-5.56,2.95-.48,4.34-.66,6.03-.87-1.36-.06-3.73.14-6.41.49-6.99.9-15.09,2.36-23.96,5.22-3.48,1.12-7.45,2.6-10.51,4.71-1.15.79-2.65,2.6-1.13,3.48ZM72.67,132.35c0-.72-.55-1.41-1.84-1.41-1.51,0-16.13.26-18.73.4-1.91.1-3.83.25-4.97,2.09-1.14,1.84-3.93,6.73-5.97,11.93,1.4-1.65,1.52-1.78,1.9-2.54.38-.76,4.13-8.25,6.66-9.14,2.54-.89,6.47-.32,8.95-.51.7-.51,1.52-1.11,2.86-1.17,1.33-.06,8.56-.19,9.51-.19,1.28,0,1.6,1.93,1.6,1.93,0-.8.03-1.11.03-1.4ZM66.25,113.14c-.07,1.88,1.1,3.24,2.69,3.51.08.01.15,0,.23,0-1.47-.19-2.58-1.7-2.52-3.49.06-1.79,1.27-3.22,2.75-3.31-.08,0-.15-.02-.23-.02-1.57.1-2.86,1.43-2.93,3.31ZM71.44,111.46c-.32-.45-.75-.74-1.24-.76-1.03-.04-1.91,1.13-1.96,2.6-.05,1.47.74,2.69,1.78,2.72.54.02,1.03-.29,1.39-.79-.71-.11-1.25-.95-1.21-1.94.03-.95.58-1.72,1.25-1.84ZM54.71,114.07c-.08.88.22,1.62.67,1.66.45.04.88-.64.96-1.52.08-.88-.22-1.62-.67-1.66-.45-.04-.88.64-.95,1.52ZM56.14,114.11c-.04.49-.25.87-.47.86-.22-.02-.35-.43-.31-.93.04-.49.25-.88.47-.86.21.02.35.43.31.93ZM109.68,135.6c.49-8.34-4.24-15.31-11.77-15.76-.54-.03-1.08-.03-1.61,0,.17,0,.33,0,.5.02,7.27.43,11.83,7.39,11.34,15.73-.45,7.75-6.4,13.84-12.8,14.19,7.19.36,13.86-6.02,14.34-14.19ZM101.04,114.58c-2.4-.43-5.5-.4-6.42,2.49-.68,2.14,2.41,1.47,4.54,1.58.12,0,.24,0,.36.02,7.53.44,12.22,7.99,11.69,17.04-.53,9.05-7.35,15.89-14.88,15.45-3.49-.2-6.51-1.93-8.7-4.63-.08,1.71-.13,3.76-.07,6.96,2.17,1.16,4.59,1.85,7.16,1.96,10.18.42,18.81-8.53,19.29-20,.42-10.14-4.74-18.72-12.98-20.86ZM106.31,107.48c-2.37-1.33-4.14-1.66-2.1-.42,1.83,1.11,5.64,4.02,6.74,8.99.19.1.38.05.43-.38.05-.43-.09-2.34-.12-3.1-.03-.95.74-1.26,1.88-1.3,1.01-.03,15.78.38,18.79.53,3.01.14,3.23-.59,3.28-1.35.09-1.47-1.06-3.5-2.32-4.96.53.86.98,1.92,1.1,3.06.07.64-.14,2.06-1.48,2.01-1.34-.05-21.57-1.13-22.76-1.43-1.48-.38-2.4-1.05-3.45-1.63ZM67.36,105.27c5.12-3.09,15.08-7.62,24.28-9.48,6.83-1.38,12.57-1.73,20.75-1.51.47-.32.91-.83,1.69-.97-1.19-.14-13.87-.28-21.86,1.52-12.56,2.83-20.99,6.98-26.78,10.36.55-.03,1.93.07,1.93.07ZM127.42,100.78c1.67,2.01,2.78,6.17,2.94,7.63.1.29,1.05.29,1.39.1-.99-4.54-2.91-6.53-4.33-7.73ZM120.39,105.83c1.21-.1,2.27-.12,2.75-.69.31-.36.23-1.38-.78-1.38-1.01,0-3.75.05-4.41.05-.55-.45-1.54-1.81-1.54-1.81l-.88,3.19c0,.33.78.47,1.31.54.64.08,2.33.21,3.54.11ZM114.66,97.09c-.41,1.52-2.42,5.28-3.08,6.38-3.67-.24-8.86-.5-10.12-.5,1.13.38,2.34,1.06,3.1,1.51,2.34.04,8.95.53,9.94.68.26-.62,2.32-7.33,2.68-8.48.28-.91.42-1.2.97-1.5.64-.35,1.8-.33,4.26,1.02,2.84,1.55,5.21,3.28,8,6.11-1.86-2.77-5.81-5.79-8.18-7.08-3.23-1.76-5.27-1.82-6.08-1.82s-1.6.41-2,.91c.9.11.95,1.2.51,2.78ZM35.83,117.43c1.14.05,5.81-.09,7.09-.09,1.21-2.01,2.73-3.61,3.32-4.02.55-.38,13.73-3.42,13.73-3.42l.18-.27c-2.49.47-18.56,4.17-21.39,5.38-1.31.56-2.74,1.19-2.92,2.42ZM115.99,131.66c1.01-3.93,2.08-10.67,2.61-13.95.62-3.88,2.61-2.36,4.29-2.91,1.18-.39-2.25-1.34-3.92-1.44-.98-.06-.92.49-1.18,4.63-.31,4.94-2.11,14.23-2.37,15.38l.58-1.7ZM140.54,106.91v1.41s.02.24.35.24,1-.12,1.3-1.03c.18-.55.48-1.48-.09-1.88-.57-.39-1.58-.55-1.54-.05v.6s-6.25.46-6.25.46c.15.21.3.43.48.71l5.76-.46ZM96.38,134.84c-.21.94.19,1.82.89,1.98.7.16,1.44-.47,1.65-1.41.21-.94-.19-1.82-.89-1.98-.7-.16-1.44.47-1.65,1.41ZM99.41,134.32c.12.33.63.44,1.14.26.51-.18.84-.59.72-.92-.12-.33-.63-.44-1.14-.26-.51.18-.84.59-.72.92ZM98.4,132.02c.13-.53-.04-1.02-.38-1.11-.34-.08-.71.28-.84.81-.13.53.04,1.02.38,1.11.34.08.71-.28.84-.81ZM95.48,137.69c-.13.5,0,.98.3,1.06.3.08.65-.26.79-.77.13-.5,0-.98-.3-1.06-.3-.08-.65.26-.79.77ZM98.73,136.72c-.28.13-.34.62-.13,1.09.21.47.62.75.9.63.28-.13.34-.62.13-1.09-.21-.47-.62-.75-.9-.63ZM94.47,133.55c-.21.23-.1.66.23.96.34.3.78.36.98.12.21-.23.11-.66-.23-.96-.34-.3-.78-.35-.98-.12ZM98.84,140.99l.38,6.85c.9-.38,1.73-.89,2.49-1.5l-1.51-6.03c-.42.3-.88.53-1.36.67ZM96.54,129.96c.37-.16.76-.28,1.15-.33l1.06-8.1c-.35-.1-.71-.18-1.08-.25-.57-.1-1.13-.13-1.68-.11l.56,8.78ZM102.56,123.63l-2.46,6.38c.34.17.66.39.95.66l3.36-4.94c-.54-.78-1.16-1.49-1.85-2.1ZM101.98,138.28l3.49,3.04c.41-.93.75-1.93.99-2.97l-3.86-1.63c-.14.56-.35,1.08-.61,1.56ZM106.39,130.1l-4.1,2.31c.15.35.28.72.36,1.11l4.21-.68c-.08-.95-.24-1.87-.47-2.75ZM89.63,146.51c.74.68,1.56,1.23,2.45,1.6l4.02-7.22c-.47-.19-.89-.46-1.26-.8l-5.21,6.42ZM93.08,135.75l-5.78.03c.48-3.23,1.05-5.83,1.57-7.84l5.11,4.41c.2-.35.43-.68.69-.98l-4.66-7.38c1.19-3.6,4.4-10.93,10.35-12.02,6.05-1.1,9.14,5.84,10.49,9.95.06.18.16.24.31.33.23.12.78.11.72-.38-2.73-13.92-11.02-13.49-13.17-12.88-1.94.55-7.15,3.06-10.66,13.36-3.13,9.2-3.86,18.67-4.02,28.66.58-.04,1.73-.21,2.23-.51,0-4.27.24-8.01.58-11.24l6.37-2.06c-.1-.47-.15-.95-.15-1.46ZM14.85,128.6c6.14.77,20.65,2.47,28.65,2.56.78-1.16,1.88-2.95,2.23-3.84.36-.89.54-1.34-.09-2.32-.63-.98-1.34-2.64-2.78-2.6-1.81.05-3.72.08-5.67.1-.4.88-1.06,2.01-1.81,2.86-.94,1.07-3,1-6.93,1-5.45,0-14.97-1.01-16.54-1.86-.77-.42-.72-1.23-.6-1.9-.02,0-.04.02-.05.03-.48.38-.88.98-.93,2.42-.07,2.26,2.13,3.25,4.52,3.55ZM140.36,107.25l-5.44.39.1.15,5.33-.25v-.28ZM114.96,106.5c1.98.33,11.32,1.69,12.22,1.82.97.13,2.14.33,2.51.03-.63-.07-4.81-.84-7.35-1.27-2.56-.44-6.19-.99-7.17-1.21l-.2.63ZM69.43,138.02c1.89-.02,2.96-.16,2.93-.57-.03-.47-.64-.75-1.45-.76-.98-.02-12.14-.02-12.14-.02-1.33.07-5.72.61-6.39.65-.66.04-.97.55-.62.58.35.03,15.79.14,17.67.13Z"/>
        <text class="cls-1" transform="translate(129.83 147.97)"><tspan class="cls-2" x="0" y="0">C</tspan><tspan class="cls-4" x="39.74" y="0">W</tspan></text>
      </g>
    </g>
  </g>
</svg>